<?xml version="1.0" encoding="UTF-8"?>
<!DOCTYPE svg PUBLIC "-//W3C//DTD SVG 1.1//EN" "http://www.w3.org/Graphics/SVG/1.1/DTD/svg11.dtd">
<svg xmlns="http://www.w3.org/2000/svg" version="1.1" width="512px" height="512px" style="shape-rendering:geometricPrecision; text-rendering:geometricPrecision; image-rendering:optimizeQuality; fill-rule:evenodd; clip-rule:evenodd" xmlns:xlink="http://www.w3.org/1999/xlink">
<g><path style="opacity:0.981" fill="#000000" d="M 233.5,15.5 C 318.416,10.5627 388.249,40.2293 443,104.5C 493.832,171.67 507.832,246.004 485,327.5C 458.005,407.162 404.505,459.995 324.5,486C 241.937,508.022 167.27,492.688 100.5,440C 30.4786,376.943 3.64527,298.776 20,205.5C 42.7085,113.458 99.2085,52.9577 189.5,24C 204.121,20.178 218.787,17.3447 233.5,15.5 Z M 254.5,47.5 C 335.887,50.4953 397.053,86.8286 438,156.5C 466.561,212.898 470.228,270.898 449,330.5C 443.643,344.885 436.477,358.218 427.5,370.5C 354.518,302.676 270.184,283.51 174.5,313C 139.908,325.618 109.575,344.785 83.5,370.5C 48.7938,317.407 39.6271,260.073 56,198.5C 78.8333,126.333 126.333,78.8333 198.5,56C 216.998,51.0491 235.665,48.2158 254.5,47.5 Z"/></g>
<g><path style="opacity:0.988" fill="#000000" d="M 241.5,79.5 C 291,75.8983 325.834,96.5649 346,141.5C 360.531,190.916 346.698,230.083 304.5,259C 282.177,271.387 258.51,274.887 233.5,269.5C 192.495,257.995 167.995,231.328 160,189.5C 155.912,139.975 176.412,105.142 221.5,85C 228.208,82.8261 234.875,80.9927 241.5,79.5 Z"/></g>
</svg>
