<?xml version="1.0" encoding="UTF-8"?>
<!DOCTYPE svg PUBLIC "-//W3C//DTD SVG 1.1//EN" "http://www.w3.org/Graphics/SVG/1.1/DTD/svg11.dtd">
<svg xmlns="http://www.w3.org/2000/svg" version="1.1" width="512px" height="512px" style="shape-rendering:geometricPrecision; text-rendering:geometricPrecision; image-rendering:optimizeQuality; fill-rule:evenodd; clip-rule:evenodd" xmlns:xlink="http://www.w3.org/1999/xlink">
<g><path style="opacity:0.992" fill="#000000" d="M 205.5,-0.5 C 210.167,-0.5 214.833,-0.5 219.5,-0.5C 231.374,5.06903 236.374,14.569 234.5,28C 234.333,32.1667 234.167,36.3333 234,40.5C 199.219,92.7478 193.552,148.081 217,206.5C 249.359,271.795 302.192,306.128 375.5,309.5C 385.913,331.319 400.413,349.986 419,365.5C 430.493,384.459 428.66,401.959 413.5,418C 408.244,422.294 402.244,424.96 395.5,426C 273.5,426.667 151.5,426.667 29.5,426C 14.0849,422.082 4.08491,412.582 -0.5,397.5C -0.5,391.5 -0.5,385.5 -0.5,379.5C 1.59647,373.314 4.76313,367.647 9,362.5C 44.1203,333.588 62.1203,296.255 63,250.5C 63.0704,222.472 63.7371,194.472 65,166.5C 73.741,121.823 97.241,87.3233 135.5,63C 152.87,52.8169 171.537,46.3169 191.5,43.5C 191.334,33.4944 191.5,23.4944 192,13.5C 194.687,6.98101 199.187,2.31434 205.5,-0.5 Z"/></g>
<g><path style="opacity:0.988" fill="#000000" d="M 356.5,-0.5 C 367.5,-0.5 378.5,-0.5 389.5,-0.5C 443.538,8.44282 481.372,38.1095 503,88.5C 506.93,99.3558 509.764,110.356 511.5,121.5C 511.5,132.5 511.5,143.5 511.5,154.5C 503.072,208.44 473.739,246.274 423.5,268C 369.968,286.225 321.635,277.225 278.5,241C 233.971,195.359 222.804,142.526 245,82.5C 267.676,35.2567 304.842,7.59006 356.5,-0.5 Z M 347.5,85.5 C 359.171,85.3335 370.838,85.5001 382.5,86C 387.667,87.8333 391.167,91.3333 393,96.5C 393.667,127.833 393.667,159.167 393,190.5C 389.28,199.111 382.78,202.611 373.5,201C 368.243,198.744 364.743,194.91 363,189.5C 362.5,165.169 362.333,140.836 362.5,116.5C 352.658,118.572 344.491,115.906 338,108.5C 334.077,97.6988 337.244,90.0322 347.5,85.5 Z"/></g>
<g><path style="opacity:0.983" fill="#000000" d="M 225.5,511.5 C 217.167,511.5 208.833,511.5 200.5,511.5C 165.431,503.935 143.098,482.768 133.5,448C 186.166,447.5 238.832,447.333 291.5,447.5C 282.931,482.736 260.931,504.07 225.5,511.5 Z"/></g>
</svg>
