<?xml version="1.0" encoding="UTF-8"?>
<!DOCTYPE svg PUBLIC "-//W3C//DTD SVG 1.1//EN" "http://www.w3.org/Graphics/SVG/1.1/DTD/svg11.dtd">
<svg xmlns="http://www.w3.org/2000/svg" version="1.1" width="512px" height="512px" style="shape-rendering:geometricPrecision; text-rendering:geometricPrecision; image-rendering:optimizeQuality; fill-rule:evenodd; clip-rule:evenodd" xmlns:xlink="http://www.w3.org/1999/xlink">
<g><path style="opacity:0.99" fill="#000000" d="M 232.5,-0.5 C 247.833,-0.5 263.167,-0.5 278.5,-0.5C 368.144,10.3879 435.644,54.7213 481,132.5C 497.695,163.971 507.861,197.304 511.5,232.5C 511.5,247.833 511.5,263.167 511.5,278.5C 500.612,368.144 456.279,435.644 378.5,481C 347.029,497.695 313.696,507.861 278.5,511.5C 263.167,511.5 247.833,511.5 232.5,511.5C 142.856,500.612 75.3562,456.279 30,378.5C 13.3053,347.029 3.1386,313.696 -0.5,278.5C -0.5,263.167 -0.5,247.833 -0.5,232.5C 10.3875,142.857 54.7208,75.3573 132.5,30C 163.971,13.3053 197.304,3.1386 232.5,-0.5 Z M 212.5,126.5 C 255.629,126.971 281.462,148.304 290,190.5C 291.681,225.782 276.515,250.615 244.5,265C 208.411,275.861 179.578,266.027 158,235.5C 140.294,200.763 145.461,169.93 173.5,143C 185.126,134.075 198.126,128.575 212.5,126.5 Z M 363.5,179.5 C 369.334,180.169 373.501,183.169 376,188.5C 376.5,200.495 376.667,212.495 376.5,224.5C 388.505,224.333 400.505,224.5 412.5,225C 420.374,229.051 422.541,235.218 419,243.5C 417.457,245.378 415.624,246.878 413.5,248C 401.228,249.418 388.895,249.918 376.5,249.5C 376.667,261.171 376.5,272.838 376,284.5C 369.945,294.978 362.612,295.978 354,287.5C 353.138,285.913 352.471,284.246 352,282.5C 351.5,271.505 351.333,260.505 351.5,249.5C 340.495,249.667 329.495,249.5 318.5,249C 308.633,245.442 305.8,238.942 310,229.5C 311.543,227.622 313.376,226.122 315.5,225C 327.495,224.5 339.495,224.333 351.5,224.5C 351.333,213.162 351.5,201.828 352,190.5C 353.789,184.541 357.622,180.875 363.5,179.5 Z M 172.5,281.5 C 203.502,281.333 234.502,281.5 265.5,282C 310.429,288.596 337.596,314.096 347,358.5C 347.92,365.276 347.586,371.943 346,378.5C 343.9,381.467 341.066,383.3 337.5,384C 258.5,384.667 179.5,384.667 100.5,384C 96.1571,382.99 92.9904,380.49 91,376.5C 90.4843,332.026 110.984,301.86 152.5,286C 159.259,284.285 165.925,282.785 172.5,281.5 Z"/></g>
<g><path style="opacity:0.974" fill="#000000" d="M 213.5,151.5 C 241.642,150.818 258.809,164.152 265,191.5C 266.702,219.783 253.868,237.283 226.5,244C 197.263,246.078 179.429,232.911 173,204.5C 171.628,175.381 185.128,157.715 213.5,151.5 Z"/></g>
<g><path style="opacity:0.966" fill="#000000" d="M 173.5,306.5 C 203.835,306.333 234.168,306.5 264.5,307C 295.536,311.54 314.536,329.04 321.5,359.5C 253.167,359.5 184.833,359.5 116.5,359.5C 123.663,329.001 142.663,311.334 173.5,306.5 Z"/></g>
</svg>
