<?xml version="1.0" encoding="UTF-8"?>
<!DOCTYPE svg PUBLIC "-//W3C//DTD SVG 1.1//EN" "http://www.w3.org/Graphics/SVG/1.1/DTD/svg11.dtd">
<svg xmlns="http://www.w3.org/2000/svg" version="1.1" width="512px" height="512px" style="shape-rendering:geometricPrecision; text-rendering:geometricPrecision; image-rendering:optimizeQuality; fill-rule:evenodd; clip-rule:evenodd" xmlns:xlink="http://www.w3.org/1999/xlink">
<g><path style="opacity:0.99" fill="#000000" d="M 234.5,25.5 C 285.055,23.8525 323.222,44.5191 349,87.5C 372.272,138.26 365.606,184.593 329,226.5C 292.619,259.912 250.786,269.078 203.5,254C 160.496,236.323 135.329,204.49 128,158.5C 123.814,106.704 143.647,67.2043 187.5,40C 202.379,32.2035 218.046,27.3702 234.5,25.5 Z"/></g>
<g><path style="opacity:0.966" fill="#000000" d="M 367.5,260.5 C 378.568,258.609 385.734,262.943 389,273.5C 389.5,281.827 389.666,290.16 389.5,298.5C 398.508,299.78 406.675,303.114 414,308.5C 420.198,301.968 426.698,295.801 433.5,290C 451.129,286.629 458.629,293.796 456,311.5C 450.573,318.931 444.407,325.764 437.5,332C 442.346,339.528 445.679,347.695 447.5,356.5C 457.247,356.08 466.914,356.58 476.5,358C 486.459,365.373 487.959,374.207 481,384.5C 479.167,385.667 477.333,386.833 475.5,388C 466.221,389.086 456.888,389.919 447.5,390.5C 445.404,398.859 442.07,406.692 437.5,414C 444.407,420.236 450.573,427.069 456,434.5C 459.123,447.389 454.123,455.055 441,457.5C 437.263,457.025 433.763,455.858 430.5,454C 425,448.5 419.5,443 414,437.5C 407.024,441.905 399.524,445.071 391.5,447C 389.93,456.312 388.763,465.812 388,475.5C 381.688,485.821 373.188,487.987 362.5,482C 360.622,480.457 359.122,478.624 358,476.5C 356.58,466.914 356.08,457.247 356.5,447.5C 347.695,445.679 339.528,442.346 332,437.5C 325.764,444.407 318.931,450.573 311.5,456C 293.796,458.629 286.629,451.129 290,433.5C 295.801,426.698 301.968,420.198 308.5,414C 303.504,406.514 300.171,398.347 298.5,389.5C 289.085,389.917 279.752,389.417 270.5,388C 260.374,382.283 257.874,374.116 263,363.5C 265.264,360.567 268.098,358.4 271.5,357C 280.494,356.5 289.494,356.334 298.5,356.5C 300.009,347.81 303.009,339.643 307.5,332C 301.68,325.512 295.846,319.012 290,312.5C 286.329,296.174 292.829,288.341 309.5,289C 311.246,289.471 312.913,290.138 314.5,291C 320.043,296.879 325.877,302.379 332,307.5C 339.643,303.009 347.81,300.009 356.5,298.5C 356.334,289.494 356.5,280.494 357,271.5C 359.357,266.645 362.857,262.979 367.5,260.5 Z M 365.5,329.5 C 398.145,328.98 414.978,344.98 416,377.5C 410.441,403.728 394.274,416.562 367.5,416C 348.819,412.982 336.652,402.482 331,384.5C 326.815,356.185 338.315,337.852 365.5,329.5 Z"/></g>
<g><path style="opacity:0.985" fill="#000000" d="M 227.5,278.5 C 244.216,278.12 260.882,278.787 277.5,280.5C 266.507,295.241 265.673,310.574 275,326.5C 277.833,329.333 280.667,332.167 283.5,335C 264.946,334.515 251.446,342.349 243,358.5C 235.92,382.17 243.753,398.67 266.5,408C 272.103,409.124 277.769,409.79 283.5,410C 266.639,426.055 263.972,444.222 275.5,464.5C 203.833,464.667 132.166,464.5 60.5,464C 43.7085,462.202 32.5419,453.369 27,437.5C 16.6641,392.833 29.1641,356.333 64.5,328C 97.1733,305.657 133.173,291.324 172.5,285C 190.877,281.904 209.21,279.737 227.5,278.5 Z"/></g>
</svg>
