<?xml version="1.0" encoding="UTF-8"?>
<!DOCTYPE svg PUBLIC "-//W3C//DTD SVG 1.1//EN" "http://www.w3.org/Graphics/SVG/1.1/DTD/svg11.dtd">
<svg xmlns="http://www.w3.org/2000/svg" version="1.1" width="512px" height="512px" style="shape-rendering:geometricPrecision; text-rendering:geometricPrecision; image-rendering:optimizeQuality; fill-rule:evenodd; clip-rule:evenodd" xmlns:xlink="http://www.w3.org/1999/xlink">
<g><path style="opacity:0.972" fill="#000000" d="M 234.5,-0.5 C 239.5,-0.5 244.5,-0.5 249.5,-0.5C 253.566,1.36941 257.566,3.53607 261.5,6C 306.361,50.5276 350.861,95.3609 395,140.5C 403.302,158.359 399.468,172.859 383.5,184C 371.024,189.466 359.357,188.132 348.5,180C 305,136.5 261.5,93 218,49.5C 211.407,40.027 209.741,29.6937 213,18.5C 217.279,8.79509 224.445,2.46175 234.5,-0.5 Z"/></g>
<g><path style="opacity:0.985" fill="#000000" d="M 198.5,71.5 C 241.956,113.123 284.623,155.623 326.5,199C 284.373,242.127 241.873,284.96 199,327.5C 156.32,284.986 113.82,242.32 71.5,199.5C 113.854,156.812 156.188,114.146 198.5,71.5 Z"/></g>
<g><path style="opacity:0.972" fill="#000000" d="M -0.5,249.5 C -0.5,244.167 -0.5,238.833 -0.5,233.5C 9.2262,212.418 24.8929,206.585 46.5,216C 90.9724,259.472 135.139,303.306 179,347.5C 190.333,361.833 190.333,376.167 179,390.5C 167.225,400.572 154.392,402.072 140.5,395C 95.0276,350.528 49.8609,305.694 5,260.5C 2.6738,256.983 0.840466,253.317 -0.5,249.5 Z"/></g>
<g><path style="opacity:0.982" fill="#000000" d="M 321.5,253.5 C 346.557,254.05 358.057,266.717 356,291.5C 389.5,324.333 423,357.167 456.5,390C 435,411.5 413.5,433 392,454.5C 358.5,421.667 325,388.833 291.5,356C 274.201,359.101 262.035,352.601 255,336.5C 252.258,326.593 253.591,317.259 259,308.5C 275.5,292 292,275.5 308.5,259C 312.741,256.651 317.075,254.818 321.5,253.5 Z"/></g>
<g><path style="opacity:0.97" fill="#000000" d="M 511.5,456.5 C 511.5,463.167 511.5,469.833 511.5,476.5C 506.068,494.932 494.068,506.599 475.5,511.5C 469.5,511.5 463.5,511.5 457.5,511.5C 450.268,509.719 443.601,506.552 437.5,502C 429.167,493 420.833,484 412.5,475C 434,453.5 455.5,432 477,410.5C 485.333,419.5 493.667,428.5 502,437.5C 506.273,443.378 509.439,449.712 511.5,456.5 Z"/></g>
<g><path style="opacity:0.986" fill="#000000" d="M 319.5,511.5 C 216.167,511.5 112.833,511.5 9.5,511.5C 5.56787,509.238 2.23454,506.238 -0.5,502.5C -0.5,498.5 -0.5,494.5 -0.5,490.5C 1.31481,486.521 4.31481,483.688 8.5,482C 15.7709,480.818 23.1042,480.151 30.5,480C 40.9981,443.834 64.9981,424.167 102.5,421C 143.833,420.333 185.167,420.333 226.5,421C 264.002,424.167 288.002,443.834 298.5,480C 304.5,480.333 310.5,480.667 316.5,481C 327.683,483.89 331.849,491.057 329,502.5C 326.57,506.434 323.403,509.434 319.5,511.5 Z"/></g>
</svg>
