<?xml version="1.0" encoding="UTF-8"?>
<!DOCTYPE svg PUBLIC "-//W3C//DTD SVG 1.1//EN" "http://www.w3.org/Graphics/SVG/1.1/DTD/svg11.dtd">
<svg xmlns="http://www.w3.org/2000/svg" version="1.1" width="512px" height="512px" style="shape-rendering:geometricPrecision; text-rendering:geometricPrecision; image-rendering:optimizeQuality; fill-rule:evenodd; clip-rule:evenodd" xmlns:xlink="http://www.w3.org/1999/xlink">
<g><path style="opacity:0.981" fill="#000000" d="M 233.5,15.5 C 336.655,10.9799 414.488,52.6466 467,140.5C 500.201,205.931 504.534,273.265 480,342.5C 450.386,414.394 398.553,462.227 324.5,486C 237.094,508.859 159.427,490.859 91.5,432C 29.9664,371.063 5.79977,297.563 19,211.5C 36.643,128.207 84.143,69.0403 161.5,34C 184.739,24.3577 208.739,18.191 233.5,15.5 Z M 254.5,75.5 C 331.768,78.8669 387.268,115.2 421,184.5C 446.705,254.938 435.705,318.938 388,376.5C 336.202,429.578 274.368,446.411 202.5,427C 145.981,407.815 107.148,370.315 86,314.5C 65.6642,249.186 76.9976,190.186 120,137.5C 156.423,98.6347 201.256,77.968 254.5,75.5 Z M 249.5,143.5 C 275.321,142.075 294.988,152.242 308.5,174C 280.667,201.833 252.833,229.667 225,257.5C 193.848,234.89 186.848,206.223 204,171.5C 215.34,155.915 230.506,146.582 249.5,143.5 Z M 208.5,264.5 C 211.46,264.662 213.293,265.995 214,268.5C 190.667,291.833 167.333,315.167 144,338.5C 140.093,312.165 149.259,291.999 171.5,278C 183.893,273.372 196.227,268.872 208.5,264.5 Z"/></g>
<g><path style="opacity:0.975" fill="#000000" d="M 245.5,87.5 C 293.095,85.9145 334.428,100.915 369.5,132.5C 290.847,211.653 212.014,290.653 133,369.5C 94.157,326.945 80.4903,277.278 92,220.5C 108.476,153.359 149.976,110.525 216.5,92C 226.234,89.9683 235.901,88.4683 245.5,87.5 Z M 249.5,143.5 C 230.506,146.582 215.34,155.915 204,171.5C 186.848,206.223 193.848,234.89 225,257.5C 252.833,229.667 280.667,201.833 308.5,174C 294.988,152.242 275.321,142.075 249.5,143.5 Z M 208.5,264.5 C 196.227,268.872 183.893,273.372 171.5,278C 149.259,291.999 140.093,312.165 144,338.5C 167.333,315.167 190.667,291.833 214,268.5C 213.293,265.995 211.46,264.662 208.5,264.5 Z"/></g>
<g><path style="opacity:0.976" fill="#000000" d="M 377.5,141.5 C 399.417,163.313 413.583,189.647 420,220.5C 429.546,278.339 414.879,329.006 376,372.5C 335.052,413.037 285.886,429.204 228.5,421C 195.014,415.423 166.014,401.09 141.5,378C 145.682,373.651 150.015,369.485 154.5,365.5C 155.795,366.098 157.128,366.598 158.5,367C 223.167,367.667 287.833,367.667 352.5,367C 360,364.833 364.833,360 367,352.5C 367.903,339.119 367.57,325.786 366,312.5C 361.167,294.335 350.001,281.835 332.5,275C 322.13,271.599 311.796,268.099 301.5,264.5C 282.992,276.902 262.659,281.736 240.5,279C 244.833,274.667 249.167,270.333 253.5,266C 292.667,262.833 313.833,241.667 317,202.5C 337.368,182.299 357.535,161.965 377.5,141.5 Z"/></g>
</svg>
