<?xml version="1.0" encoding="UTF-8"?>
<!DOCTYPE svg PUBLIC "-//W3C//DTD SVG 1.1//EN" "http://www.w3.org/Graphics/SVG/1.1/DTD/svg11.dtd">
<svg xmlns="http://www.w3.org/2000/svg" version="1.1" width="512px" height="512px" style="shape-rendering:geometricPrecision; text-rendering:geometricPrecision; image-rendering:optimizeQuality; fill-rule:evenodd; clip-rule:evenodd" xmlns:xlink="http://www.w3.org/1999/xlink">
<g><path style="opacity:0.994" fill="#000000" d="M 185.5,-0.5 C 232.167,-0.5 278.833,-0.5 325.5,-0.5C 343.484,4.65165 354.984,16.3183 360,34.5C 360.5,42.8267 360.666,51.16 360.5,59.5C 393.168,59.3334 425.835,59.5 458.5,60C 475.844,66.5089 483.011,79.0089 480,97.5C 476.833,108.667 469.667,115.833 458.5,119C 323.167,119.667 187.833,119.667 52.5,119C 35.1556,112.491 27.9889,99.9911 31,81.5C 34.1667,70.3333 41.3333,63.1667 52.5,60C 85.165,59.5 117.832,59.3334 150.5,59.5C 146.235,35.3984 154.235,16.8984 174.5,4C 178.307,2.57157 181.974,1.07157 185.5,-0.5 Z M 195.5,29.5 C 237.206,29.028 278.873,29.528 320.5,31C 324.667,32.5 327.5,35.3333 329,39.5C 330.274,46.1028 330.774,52.7695 330.5,59.5C 280.5,59.5 230.5,59.5 180.5,59.5C 180.226,52.7695 180.726,46.1028 182,39.5C 184.982,34.0048 189.482,30.6715 195.5,29.5 Z"/></g>
<g><path style="opacity:0.99" fill="#000000" d="M 387.5,511.5 C 299.5,511.5 211.5,511.5 123.5,511.5C 105.955,506.456 94.4545,495.122 89,477.5C 79.1714,368.223 70.0047,258.89 61.5,149.5C 190.833,149.5 320.167,149.5 449.5,149.5C 440.995,258.89 431.829,368.223 422,477.5C 416.545,495.122 405.045,506.456 387.5,511.5 Z M 160.5,180.5 C 171.776,178.708 178.276,183.375 180,194.5C 185.54,276.803 190.207,359.136 194,441.5C 190.219,449.305 184.053,452.138 175.5,450C 169.513,447.538 166.346,443.038 166,436.5C 160.46,354.197 155.793,271.864 152,189.5C 153.688,185.315 156.521,182.315 160.5,180.5 Z M 250.5,180.5 C 261.422,179.197 267.922,183.864 270,194.5C 270.667,275.167 270.667,355.833 270,436.5C 266.437,450.528 258.271,454.028 245.5,447C 242.773,444.044 241.273,440.544 241,436.5C 240.333,355.833 240.333,275.167 241,194.5C 241.959,188.223 245.126,183.556 250.5,180.5 Z M 340.5,180.5 C 354.744,179.244 361.077,185.744 359.5,200C 354.893,280.551 349.726,361.051 344,441.5C 340.219,449.305 334.053,452.138 325.5,450C 317.71,446.082 314.71,439.748 316.5,431C 321.23,352.161 326.063,273.327 331,194.5C 331.466,187.874 334.633,183.208 340.5,180.5 Z"/></g>
</svg>
