<?xml version="1.0" encoding="UTF-8"?>
<!DOCTYPE svg PUBLIC "-//W3C//DTD SVG 1.1//EN" "http://www.w3.org/Graphics/SVG/1.1/DTD/svg11.dtd">
<svg xmlns="http://www.w3.org/2000/svg" version="1.1" width="512px" height="512px" style="shape-rendering:geometricPrecision; text-rendering:geometricPrecision; image-rendering:optimizeQuality; fill-rule:evenodd; clip-rule:evenodd" xmlns:xlink="http://www.w3.org/1999/xlink">
<g><path style="opacity:0.994" fill="#000000" d="M 31.5,-0.5 C 88.1667,-0.5 144.833,-0.5 201.5,-0.5C 219.707,4.21005 230.54,15.8767 234,34.5C 234.667,89.1667 234.667,143.833 234,198.5C 230.167,218.333 218.333,230.167 198.5,234C 143.833,234.667 89.1667,234.667 34.5,234C 15.9698,230.425 4.30309,219.592 -0.5,201.5C -0.5,144.833 -0.5,88.1667 -0.5,31.5C 4.5,15.1667 15.1667,4.5 31.5,-0.5 Z"/></g>
<g><path style="opacity:0.994" fill="#000000" d="M 309.5,-0.5 C 366.167,-0.5 422.833,-0.5 479.5,-0.5C 495.833,4.5 506.5,15.1667 511.5,31.5C 511.5,88.1667 511.5,144.833 511.5,201.5C 506.697,219.592 495.03,230.425 476.5,234C 421.833,234.667 367.167,234.667 312.5,234C 292.667,230.167 280.833,218.333 277,198.5C 276.333,143.833 276.333,89.1667 277,34.5C 280.46,15.8767 291.293,4.21005 309.5,-0.5 Z"/></g>
<g><path style="opacity:0.994" fill="#000000" d="M 201.5,511.5 C 144.833,511.5 88.1667,511.5 31.5,511.5C 15.1667,506.5 4.5,495.833 -0.5,479.5C -0.5,422.833 -0.5,366.167 -0.5,309.5C 4.21005,291.293 15.8767,280.46 34.5,277C 89.1667,276.333 143.833,276.333 198.5,277C 218.333,280.833 230.167,292.667 234,312.5C 234.667,367.167 234.667,421.833 234,476.5C 230.425,495.03 219.592,506.697 201.5,511.5 Z"/></g>
<g><path style="opacity:0.994" fill="#000000" d="M 511.5,309.5 C 511.5,366.167 511.5,422.833 511.5,479.5C 506.5,495.833 495.833,506.5 479.5,511.5C 422.833,511.5 366.167,511.5 309.5,511.5C 291.293,506.79 280.46,495.123 277,476.5C 276.333,421.833 276.333,367.167 277,312.5C 280.833,292.667 292.667,280.833 312.5,277C 367.167,276.333 421.833,276.333 476.5,277C 495.123,280.46 506.79,291.293 511.5,309.5 Z"/></g>
</svg>
