<?xml version="1.0" encoding="UTF-8"?>
<!DOCTYPE svg PUBLIC "-//W3C//DTD SVG 1.1//EN" "http://www.w3.org/Graphics/SVG/1.1/DTD/svg11.dtd">
<svg xmlns="http://www.w3.org/2000/svg" version="1.1" width="512px" height="512px" style="shape-rendering:geometricPrecision; text-rendering:geometricPrecision; image-rendering:optimizeQuality; fill-rule:evenodd; clip-rule:evenodd" xmlns:xlink="http://www.w3.org/1999/xlink">
<g><path style="opacity:0.975" fill="#000000" d="M 407.5,25.5 C 422.292,25.1538 435.625,29.3205 447.5,38C 456,46.5 464.5,55 473,63.5C 490.93,91.0771 489.263,117.41 468,142.5C 461.957,148.878 455.624,154.878 449,160.5C 415.5,128.333 382.667,95.5 350.5,62C 358.857,51.976 368.19,42.976 378.5,35C 387.613,29.6835 397.28,26.5169 407.5,25.5 Z"/></g>
<g><path style="opacity:0.966" fill="#000000" d="M 95.5,68.5 C 141.835,68.3333 188.168,68.5 234.5,69C 242.304,71.4719 246.304,76.8053 246.5,85C 246.205,93.5808 241.871,98.9141 233.5,101C 188.5,101.333 143.5,101.667 98.5,102C 76.4712,107.363 63.3045,121.196 59,143.5C 58.3333,232.5 58.3333,321.5 59,410.5C 63.3848,433.218 76.8848,447.052 99.5,452C 189.167,452.667 278.833,452.667 368.5,452C 390.843,447.91 404.343,434.743 409,412.5C 409.333,367.5 409.667,322.5 410,277.5C 415.363,264.823 424.196,261.656 436.5,268C 439.467,270.1 441.3,272.934 442,276.5C 442.667,322.833 442.667,369.167 442,415.5C 437.068,446.42 420.234,467.92 391.5,480C 384.372,482.559 377.038,484.226 369.5,485C 279.5,485.667 189.5,485.667 99.5,485C 67.8815,481.448 45.3815,465.281 32,436.5C 28.7474,428.823 26.7474,420.823 26,412.5C 25.0198,319.477 25.3531,226.477 27,133.5C 36.2523,97.4673 59.0856,75.8006 95.5,68.5 Z"/></g>
<g><path style="opacity:0.985" fill="#000000" d="M 326.5,84.5 C 327.552,84.3505 328.552,84.5172 329.5,85C 361.667,117.167 393.833,149.333 426,181.5C 426.667,182.5 426.667,183.5 426,184.5C 365.473,245.361 304.639,305.861 243.5,366C 238.058,369.704 232.058,372.037 225.5,373C 201.228,375.874 176.895,377.54 152.5,378C 139.358,373.553 132.692,364.386 132.5,350.5C 134.456,327.48 136.623,304.48 139,281.5C 140.115,277.271 141.781,273.271 144,269.5C 205.035,207.965 265.869,146.298 326.5,84.5 Z"/></g>
</svg>
