<?xml version="1.0" encoding="UTF-8"?>
<!DOCTYPE svg PUBLIC "-//W3C//DTD SVG 1.1//EN" "http://www.w3.org/Graphics/SVG/1.1/DTD/svg11.dtd">
<svg xmlns="http://www.w3.org/2000/svg" version="1.1" width="512px" height="512px" style="shape-rendering:geometricPrecision; text-rendering:geometricPrecision; image-rendering:optimizeQuality; fill-rule:evenodd; clip-rule:evenodd" xmlns:xlink="http://www.w3.org/1999/xlink">
<g><path style="opacity:0.987" fill="#000000" d="M 511.5,278.5 C 511.5,284.833 511.5,291.167 511.5,297.5C 506.143,313.688 495.143,323.854 478.5,328C 465.207,330.493 451.873,332.66 438.5,334.5C 438.667,295.499 438.5,256.499 438,217.5C 434.073,189.905 419.24,170.739 393.5,160C 387.639,158.035 381.639,156.702 375.5,156C 271.834,155.5 168.167,155.333 64.5,155.5C 62.7142,146.069 61.3808,136.569 60.5,127C 61.4136,107.511 71.0803,94.5111 89.5,88C 201.787,68.0759 314.121,48.4093 426.5,29C 447.678,26.5036 462.511,35.0036 471,54.5C 484.464,129.309 497.964,203.976 511.5,278.5 Z"/></g>
<g><path style="opacity:0.972" fill="#000000" d="M -0.5,223.5 C -0.5,220.833 -0.5,218.167 -0.5,215.5C 4.97348,198.863 16.3068,188.696 33.5,185C 147.167,184.333 260.833,184.333 374.5,185C 395.774,189.107 407.441,201.94 409.5,223.5C 272.833,223.5 136.167,223.5 -0.5,223.5 Z"/></g>
<g><path style="opacity:0.984" fill="#000000" d="M -0.5,252.5 C 136.167,252.5 272.833,252.5 409.5,252.5C 409.5,275.5 409.5,298.5 409.5,321.5C 272.833,321.5 136.167,321.5 -0.5,321.5C -0.5,298.5 -0.5,275.5 -0.5,252.5 Z"/></g>
<g><path style="opacity:0.992" fill="#000000" d="M -0.5,350.5 C 136.167,350.5 272.833,350.5 409.5,350.5C 409.966,384.874 409.466,419.207 408,453.5C 403.317,468.271 393.484,477.771 378.5,482C 262.5,482.667 146.5,482.667 30.5,482C 14.3186,477.651 3.98523,467.484 -0.5,451.5C -0.5,417.833 -0.5,384.167 -0.5,350.5 Z M 50.5,416.5 C 74.8772,416.05 99.2105,416.55 123.5,418C 133.457,424.163 135.124,432.163 128.5,442C 125.624,444.437 122.29,445.77 118.5,446C 94.125,446.95 69.7917,446.617 45.5,445C 35.5428,438.837 33.8761,430.837 40.5,421C 43.5636,418.63 46.8969,417.13 50.5,416.5 Z"/></g>
</svg>
