<?xml version="1.0" encoding="UTF-8"?>
<!DOCTYPE svg PUBLIC "-//W3C//DTD SVG 1.1//EN" "http://www.w3.org/Graphics/SVG/1.1/DTD/svg11.dtd">
<svg xmlns="http://www.w3.org/2000/svg" version="1.1" width="512px" height="512px" style="shape-rendering:geometricPrecision; text-rendering:geometricPrecision; image-rendering:optimizeQuality; fill-rule:evenodd; clip-rule:evenodd" xmlns:xlink="http://www.w3.org/1999/xlink">
<g><path style="opacity:0.982" fill="#000000" d="M 511.5,32.5 C 511.5,34.1667 511.5,35.8333 511.5,37.5C 499.837,87.4883 487.837,137.488 475.5,187.5C 464.347,176.848 453.347,166.014 442.5,155C 441.833,154.333 441.167,154.333 440.5,155C 373.333,214.167 306.167,273.333 239,332.5C 213.253,287.337 187.253,242.337 161,197.5C 119.247,220.627 77.4136,243.627 35.5,266.5C 23.4725,245.104 11.4725,223.771 -0.5,202.5C -0.5,201.5 -0.5,200.5 -0.5,199.5C 63.186,165.239 126.686,130.572 190,95.5C 213,135.167 236,174.833 259,214.5C 301.37,176.461 344.036,138.795 387,101.5C 387.667,100.833 387.667,100.167 387,99.5C 376.652,89.3192 366.486,78.9859 356.5,68.5C 408.052,56.0288 459.718,44.0288 511.5,32.5 Z"/></g>
<g><path style="opacity:0.986" fill="#000000" d="M 438.5,195.5 C 439.552,195.351 440.552,195.517 441.5,196C 457.333,211.833 473.167,227.667 489,243.5C 489.5,321.833 489.667,400.166 489.5,478.5C 465.167,478.5 440.833,478.5 416.5,478.5C 416.333,390.833 416.5,303.166 417,215.5C 424.364,208.967 431.53,202.3 438.5,195.5 Z"/></g>
<g><path style="opacity:0.97" fill="#000000" d="M 393.5,235.5 C 395.497,316.16 396.164,397.16 395.5,478.5C 370.833,478.5 346.167,478.5 321.5,478.5C 321.333,418.499 321.5,358.499 322,298.5C 345.73,277.263 369.564,256.263 393.5,235.5 Z"/></g>
<g><path style="opacity:0.982" fill="#000000" d="M 149.5,237.5 C 168.559,271.277 187.392,305.277 206,339.5C 206.5,385.832 206.667,432.165 206.5,478.5C 182.167,478.5 157.833,478.5 133.5,478.5C 133.333,401.166 133.5,323.833 134,246.5C 139.148,243.347 144.314,240.347 149.5,237.5 Z"/></g>
<g><path style="opacity:0.984" fill="#000000" d="M 110.5,258.5 C 112.497,331.492 113.164,404.826 112.5,478.5C 88.1667,478.5 63.8333,478.5 39.5,478.5C 39.1667,418.163 39.5,357.83 40.5,297.5C 64.2182,284.979 87.5515,271.979 110.5,258.5 Z"/></g>
<g><path style="opacity:0.982" fill="#000000" d="M 299.5,317.5 C 300.499,370.997 300.832,424.664 300.5,478.5C 276.167,478.5 251.833,478.5 227.5,478.5C 227.333,445.832 227.5,413.165 228,380.5C 251.73,359.263 275.564,338.263 299.5,317.5 Z"/></g>
</svg>
