<?xml version="1.0" encoding="UTF-8"?>
<!DOCTYPE svg PUBLIC "-//W3C//DTD SVG 1.1//EN" "http://www.w3.org/Graphics/SVG/1.1/DTD/svg11.dtd">
<svg xmlns="http://www.w3.org/2000/svg" version="1.1" width="512px" height="512px" style="shape-rendering:geometricPrecision; text-rendering:geometricPrecision; image-rendering:optimizeQuality; fill-rule:evenodd; clip-rule:evenodd" xmlns:xlink="http://www.w3.org/1999/xlink">
<g><path style="opacity:0.94" fill="#000000" d="M 511.5,51.5 C 511.5,164.167 511.5,276.833 511.5,389.5C 508.349,398.816 502.016,404.983 492.5,408C 434.501,408.5 376.501,408.667 318.5,408.5C 318.5,419.167 318.5,429.833 318.5,440.5C 328.506,440.334 338.506,440.5 348.5,441C 359.908,443.406 368.075,449.906 373,460.5C 374.833,468.667 371.999,474.501 364.5,478C 291.833,478.667 219.167,478.667 146.5,478C 139.001,474.501 136.167,468.667 138,460.5C 142.899,449.938 151.066,443.438 162.5,441C 172.494,440.5 182.494,440.334 192.5,440.5C 192.5,429.833 192.5,419.167 192.5,408.5C 134.499,408.667 76.499,408.5 18.5,408C 8.98387,404.983 2.65054,398.816 -0.5,389.5C -0.5,276.833 -0.5,164.167 -0.5,51.5C 3.38033,42.4575 10.047,36.2909 19.5,33C 176.833,32.3333 334.167,32.3333 491.5,33C 500.953,36.2909 507.62,42.4575 511.5,51.5 Z M 24.5,43.5 C 178.167,43.3333 331.834,43.5 485.5,44C 492.778,45.2743 497.611,49.441 500,56.5C 500.5,145.166 500.667,233.833 500.5,322.5C 337.167,322.5 173.833,322.5 10.5,322.5C 10.3333,233.833 10.5,145.166 11,56.5C 13.3184,49.7817 17.8184,45.4484 24.5,43.5 Z M 102.5,87.5 C 104.167,87.5 105.833,87.5 107.5,87.5C 107.181,104.881 107.514,122.214 108.5,139.5C 109.025,140.192 109.692,140.692 110.5,141C 127.497,141.5 144.497,141.667 161.5,141.5C 156.637,168.526 140.47,183.193 113,185.5C 87.9227,183.091 71.9227,169.758 65,145.5C 62.2059,116.052 74.7059,96.719 102.5,87.5 Z M 119.5,87.5 C 137.19,90.1002 150.023,99.4335 158,115.5C 160.103,120.302 161.269,125.302 161.5,130.5C 147.5,130.5 133.5,130.5 119.5,130.5C 119.5,116.167 119.5,101.833 119.5,87.5 Z M 304.5,148.5 C 311.5,148.5 318.5,148.5 325.5,148.5C 325.5,192.5 325.5,236.5 325.5,280.5C 318.5,280.5 311.5,280.5 304.5,280.5C 304.5,236.5 304.5,192.5 304.5,148.5 Z M 436.5,170.5 C 443.5,170.5 450.5,170.5 457.5,170.5C 457.5,207.167 457.5,243.833 457.5,280.5C 450.5,280.5 443.5,280.5 436.5,280.5C 436.5,243.833 436.5,207.167 436.5,170.5 Z M 238.5,203.5 C 245.833,203.5 253.167,203.5 260.5,203.5C 260.5,229.167 260.5,254.833 260.5,280.5C 253.167,280.5 245.833,280.5 238.5,280.5C 238.5,254.833 238.5,229.167 238.5,203.5 Z M 370.5,203.5 C 377.5,203.5 384.5,203.5 391.5,203.5C 391.5,229.167 391.5,254.833 391.5,280.5C 384.5,280.5 377.5,280.5 370.5,280.5C 370.5,254.833 370.5,229.167 370.5,203.5 Z M 10.5,334.5 C 173.833,334.5 337.167,334.5 500.5,334.5C 500.667,351.17 500.5,367.837 500,384.5C 498.5,391.333 494.333,395.5 487.5,397C 332.833,397.667 178.167,397.667 23.5,397C 16.6667,395.5 12.5,391.333 11,384.5C 10.5001,367.837 10.3334,351.17 10.5,334.5 Z M 252.5,359.5 C 258.641,358.816 261.808,361.483 262,367.5C 257.667,374.167 253.333,374.167 249,367.5C 248.777,364.275 249.943,361.609 252.5,359.5 Z M 204.5,409.5 C 238.5,409.5 272.5,409.5 306.5,409.5C 306.5,419.833 306.5,430.167 306.5,440.5C 272.5,440.5 238.5,440.5 204.5,440.5C 204.5,430.167 204.5,419.833 204.5,409.5 Z M 163.5,452.5 C 224.834,452.333 286.168,452.5 347.5,453C 354.023,454.858 358.69,458.858 361.5,465C 361.095,465.945 360.428,466.612 359.5,467C 290.167,467.667 220.833,467.667 151.5,467C 149.18,465.512 149.013,463.679 151,461.5C 154.299,457.118 158.466,454.118 163.5,452.5 Z"/></g>
<g><path style="opacity:0.907" fill="#000000" d="M 112.5,74.5 C 149.892,78.0581 170.558,98.5581 174.5,136C 170.87,173.13 150.537,193.297 113.5,196.5C 80.6967,194.533 60.53,177.533 53,145.5C 50.2527,115.622 62.0861,93.7884 88.5,80C 96.3435,76.8696 104.344,75.0363 112.5,74.5 Z M 102.5,87.5 C 74.7059,96.719 62.2059,116.052 65,145.5C 71.9227,169.758 87.9227,183.091 113,185.5C 140.47,183.193 156.637,168.526 161.5,141.5C 144.497,141.667 127.497,141.5 110.5,141C 109.692,140.692 109.025,140.192 108.5,139.5C 107.514,122.214 107.181,104.881 107.5,87.5C 105.833,87.5 104.167,87.5 102.5,87.5 Z M 119.5,87.5 C 119.5,101.833 119.5,116.167 119.5,130.5C 133.5,130.5 147.5,130.5 161.5,130.5C 161.269,125.302 160.103,120.302 158,115.5C 150.023,99.4335 137.19,90.1002 119.5,87.5 Z"/></g>
<g><path style="opacity:0.889" fill="#000000" d="M 314.5,74.5 C 318.672,76.1585 322.172,78.8252 325,82.5C 343.633,105.632 362.8,128.298 382.5,150.5C 402.517,137.159 422.184,123.325 441.5,109C 448.968,104.979 452.468,107.146 452,115.5C 430.47,131.688 408.637,147.522 386.5,163C 383.634,164.457 380.634,164.79 377.5,164C 356.667,139.167 335.833,114.333 315,89.5C 294.5,109.333 274,129.167 253.5,149C 245.333,151.5 242.5,148.667 245,140.5C 267.784,117.877 290.95,95.8775 314.5,74.5 Z"/></g>
<g><path style="opacity:0.924" fill="#000000" d="M 300.5,136.5 C 310.172,136.334 319.839,136.5 329.5,137C 332.913,138.077 335.413,140.244 337,143.5C 337.667,190.5 337.667,237.5 337,284.5C 336.214,287.583 334.381,289.749 331.5,291C 320.833,291.667 310.167,291.667 299.5,291C 297,289.833 295.167,288 294,285.5C 293.333,237.833 293.333,190.167 294,142.5C 295.494,139.686 297.66,137.686 300.5,136.5 Z M 304.5,148.5 C 304.5,192.5 304.5,236.5 304.5,280.5C 311.5,280.5 318.5,280.5 325.5,280.5C 325.5,236.5 325.5,192.5 325.5,148.5C 318.5,148.5 311.5,148.5 304.5,148.5 Z"/></g>
<g><path style="opacity:0.896" fill="#000000" d="M 434.5,158.5 C 444.233,158.109 453.9,158.609 463.5,160C 466.187,161.875 468.021,164.375 469,167.5C 469.667,206.167 469.667,244.833 469,283.5C 467.923,286.913 465.756,289.413 462.5,291C 452.167,291.667 441.833,291.667 431.5,291C 428.244,289.413 426.077,286.913 425,283.5C 424.333,244.833 424.333,206.167 425,167.5C 426.462,162.548 429.629,159.548 434.5,158.5 Z M 436.5,170.5 C 436.5,207.167 436.5,243.833 436.5,280.5C 443.5,280.5 450.5,280.5 457.5,280.5C 457.5,243.833 457.5,207.167 457.5,170.5C 450.5,170.5 443.5,170.5 436.5,170.5 Z"/></g>
<g><path style="opacity:0.951" fill="#000000" d="M 234.5,191.5 C 244.506,191.334 254.506,191.5 264.5,192C 267.333,193.5 269.5,195.667 271,198.5C 271.667,227.167 271.667,255.833 271,284.5C 270.214,287.583 268.381,289.749 265.5,291C 254.833,291.667 244.167,291.667 233.5,291C 231,289.833 229.167,288 228,285.5C 227.333,256.5 227.333,227.5 228,198.5C 229.694,195.642 231.861,193.309 234.5,191.5 Z M 238.5,203.5 C 238.5,229.167 238.5,254.833 238.5,280.5C 245.833,280.5 253.167,280.5 260.5,280.5C 260.5,254.833 260.5,229.167 260.5,203.5C 253.167,203.5 245.833,203.5 238.5,203.5 Z"/></g>
<g><path style="opacity:0.898" fill="#000000" d="M 366.5,191.5 C 376.172,191.334 385.839,191.5 395.5,192C 399.333,193.167 401.833,195.667 403,199.5C 403.667,227.833 403.667,256.167 403,284.5C 401.5,287.333 399.333,289.5 396.5,291C 386.167,291.667 375.833,291.667 365.5,291C 361.835,289.332 359.668,286.499 359,282.5C 358.333,255.5 358.333,228.5 359,201.5C 359.471,196.542 361.971,193.209 366.5,191.5 Z M 370.5,203.5 C 370.5,229.167 370.5,254.833 370.5,280.5C 377.5,280.5 384.5,280.5 391.5,280.5C 391.5,254.833 391.5,229.167 391.5,203.5C 384.5,203.5 377.5,203.5 370.5,203.5 Z"/></g>
<g><path style="opacity:0.882" fill="#000000" d="M 55.5,217.5 C 94.1681,217.333 132.835,217.5 171.5,218C 175.769,222.487 175.102,226.154 169.5,229C 132.167,229.667 94.8333,229.667 57.5,229C 52.8848,227.923 51.3848,225.09 53,220.5C 53.6979,219.309 54.5313,218.309 55.5,217.5 Z"/></g>
<g><path style="opacity:0.883" fill="#000000" d="M 56.5,248.5 C 94.1681,248.333 131.835,248.5 169.5,249C 175.682,252.302 176.015,255.969 170.5,260C 132.167,260.667 93.8333,260.667 55.5,260C 51.3068,255.683 51.6401,251.85 56.5,248.5 Z"/></g>
<g><path style="opacity:0.958" fill="#000000" d="M 55.5,280.5 C 94.1681,280.333 132.835,280.5 171.5,281C 175.224,284.404 175.224,287.737 171.5,291C 132.5,291.667 93.5,291.667 54.5,291C 51.6516,287.107 51.9849,283.607 55.5,280.5 Z"/></g>
<g><path style="opacity:0.902" fill="#000000" d="M 250.5,347.5 C 267.65,347.15 275.15,355.483 273,372.5C 266.237,384.42 256.737,387.254 244.5,381C 237.863,375.289 235.696,368.123 238,359.5C 240.769,353.895 244.936,349.895 250.5,347.5 Z M 252.5,359.5 C 249.943,361.609 248.777,364.275 249,367.5C 253.333,374.167 257.667,374.167 262,367.5C 261.808,361.483 258.641,358.816 252.5,359.5 Z"/></g>
</svg>
