<?xml version="1.0" encoding="UTF-8"?>
<!DOCTYPE svg PUBLIC "-//W3C//DTD SVG 1.1//EN" "http://www.w3.org/Graphics/SVG/1.1/DTD/svg11.dtd">
<svg xmlns="http://www.w3.org/2000/svg" version="1.1" width="512px" height="512px" style="shape-rendering:geometricPrecision; text-rendering:geometricPrecision; image-rendering:optimizeQuality; fill-rule:evenodd; clip-rule:evenodd" xmlns:xlink="http://www.w3.org/1999/xlink">
<g><path style="opacity:0.994" fill="#000000" d="M 511.5,244.5 C 511.5,280.167 511.5,315.833 511.5,351.5C 509.685,355.479 506.685,358.312 502.5,360C 491.839,360.5 481.172,360.667 470.5,360.5C 464.981,385.518 449.648,400.685 424.5,406C 396.923,409.294 376.09,399.127 362,375.5C 359.787,370.696 358.287,365.696 357.5,360.5C 306.833,360.5 256.167,360.5 205.5,360.5C 199.981,385.518 184.648,400.685 159.5,406C 131.923,409.294 111.09,399.127 97,375.5C 94.7868,370.696 93.2868,365.696 92.5,360.5C 80.4954,360.667 68.4954,360.5 56.5,360C 52.3333,358.5 49.5,355.667 48,351.5C 47.5001,334.503 47.3334,317.503 47.5,300.5C 34.4957,300.667 21.4957,300.5 8.5,300C 4.31481,298.312 1.31481,295.479 -0.5,291.5C -0.5,287.5 -0.5,283.5 -0.5,279.5C 1.31481,275.521 4.31481,272.688 8.5,271C 55.5,270.667 102.5,270.333 149.5,270C 158.249,269.085 163.249,264.252 164.5,255.5C 163.249,246.748 158.249,241.915 149.5,241C 102.5,240.667 55.5,240.333 8.5,240C 4.31481,238.312 1.31481,235.479 -0.5,231.5C -0.5,227.5 -0.5,223.5 -0.5,219.5C 1.31481,215.521 4.31481,212.688 8.5,211C 40.8333,210.667 73.1667,210.333 105.5,210C 118.5,206.493 122.166,198.66 116.5,186.5C 114.972,185.139 113.305,183.972 111.5,183C 82.2011,181.716 52.8678,181.049 23.5,181C 15.0851,176.652 12.2517,169.819 15,160.5C 16.5,156.333 19.3333,153.5 23.5,152C 31.4931,151.5 39.4931,151.334 47.5,151.5C 47.3334,138.496 47.5001,125.496 48,112.5C 49.5,108.333 52.3333,105.5 56.5,104C 149.166,103.5 241.833,103.333 334.5,103.5C 334.333,133.502 334.5,163.502 335,193.5C 335.833,202.333 340.667,207.167 349.5,208C 390.167,208.333 430.833,208.667 471.5,209C 492.306,212.65 505.639,224.484 511.5,244.5 Z M 142.5,322.5 C 158.639,320.649 169.473,327.316 175,342.5C 177.315,358.181 171.148,369.014 156.5,375C 140.43,377.551 129.263,371.385 123,356.5C 120.452,339.9 126.952,328.566 142.5,322.5 Z M 407.5,322.5 C 423.639,320.649 434.473,327.316 440,342.5C 442.315,358.181 436.148,369.014 421.5,375C 405.43,377.551 394.263,371.385 388,356.5C 385.452,339.9 391.952,328.566 407.5,322.5 Z"/></g>
<g><path style="opacity:0.982" fill="#000000" d="M 364.5,106.5 C 393.002,112.173 415.168,127.173 431,151.5C 436.75,159.998 442.25,168.664 447.5,177.5C 419.841,178.5 392.175,178.833 364.5,178.5C 364.5,154.5 364.5,130.5 364.5,106.5 Z"/></g>
</svg>
