<?xml version="1.0" encoding="UTF-8"?>
<!DOCTYPE svg PUBLIC "-//W3C//DTD SVG 1.1//EN" "http://www.w3.org/Graphics/SVG/1.1/DTD/svg11.dtd">
<svg xmlns="http://www.w3.org/2000/svg" version="1.1" width="512px" height="512px" style="shape-rendering:geometricPrecision; text-rendering:geometricPrecision; image-rendering:optimizeQuality; fill-rule:evenodd; clip-rule:evenodd" xmlns:xlink="http://www.w3.org/1999/xlink">
<g><path style="opacity:0.968" fill="#000000" d="M 22.5,-0.5 C 115.5,-0.5 208.5,-0.5 301.5,-0.5C 336.133,33.2995 370.299,67.6328 404,102.5C 404.333,141.5 404.667,180.5 405,219.5C 440.659,260.094 449.659,306.094 432,357.5C 429.637,363.059 427.137,368.559 424.5,374C 451.293,401.793 478.459,429.293 506,456.5C 508.13,459.767 509.963,463.1 511.5,466.5C 511.5,474.167 511.5,481.833 511.5,489.5C 506.282,500.385 497.949,507.718 486.5,511.5C 481.167,511.5 475.833,511.5 470.5,511.5C 465.98,509.907 461.647,507.74 457.5,505C 440,487.5 422.5,470 405,452.5C 404.945,465.902 404.278,479.236 403,492.5C 398.953,501.924 392.119,508.257 382.5,511.5C 262.5,511.5 142.5,511.5 22.5,511.5C 11.5167,508.016 4.35008,500.682 1,489.5C 0.333333,333.5 0.333333,177.5 1,21.5C 4.35008,10.3177 11.5167,2.98437 22.5,-0.5 Z M 30.5,19.5 C 115.833,19.5 201.167,19.5 286.5,19.5C 286.333,44.8355 286.5,70.1689 287,95.5C 290.167,106.667 297.333,113.833 308.5,117C 333.498,117.5 358.498,117.667 383.5,117.5C 383.833,145.175 383.5,172.841 382.5,200.5C 348.96,179.398 312.96,173.898 274.5,184C 221.501,201.817 190.334,238.317 181,293.5C 180.333,304.167 180.333,314.833 181,325.5C 181.819,333.602 183.653,341.435 186.5,349C 144.5,349.333 102.5,349.667 60.5,350C 54.8912,353.277 53.0578,358.11 55,364.5C 57.0755,367.588 59.9089,369.421 63.5,370C 107.071,370.83 150.571,370.663 194,369.5C 229.051,427.424 279.884,449.258 346.5,435C 355.841,432.163 364.841,428.496 373.5,424C 374.5,423.333 375.5,423.333 376.5,424C 378.667,426.167 380.833,428.333 383,430.5C 383.667,448.833 383.667,467.167 383,485.5C 380.949,488.553 378.115,490.386 374.5,491C 258.457,491.992 142.457,491.659 26.5,490C 23.4469,487.949 21.6135,485.115 21,481.5C 20.3333,330.833 20.3333,180.167 21,29.5C 22.0143,23.9883 25.1809,20.655 30.5,19.5 Z M 306.5,35.5 C 327.299,55.7983 347.965,76.2983 368.5,97C 351.167,97.6667 333.833,97.6667 316.5,97C 311,96.1667 307.833,93 307,87.5C 306.5,70.1699 306.333,52.8365 306.5,35.5 Z M 296.5,200.5 C 354.24,197.767 393.74,223.101 415,276.5C 428.149,330.748 411.649,373.248 365.5,404C 334.57,420.629 302.57,422.963 269.5,411C 221.08,387.86 198.58,349.36 202,295.5C 212.346,242.654 243.846,210.987 296.5,200.5 Z M 299.5,242.5 C 336.307,239.806 361.474,255.472 375,289.5C 383.376,330.117 368.542,358.284 330.5,374C 289.883,382.376 261.716,367.542 246,329.5C 238.546,297.852 247.713,272.352 273.5,253C 281.752,248.2 290.418,244.7 299.5,242.5 Z M 410.5,392.5 C 437.416,417.914 463.916,443.914 490,470.5C 494.138,481.9 490.305,488.567 478.5,490.5C 476.035,490.522 473.702,490.022 471.5,489C 445.667,463.167 419.833,437.333 394,411.5C 393.333,410.833 393.333,410.167 394,409.5C 400.375,404.626 405.875,398.96 410.5,392.5 Z"/></g>
<g><path style="opacity:0.948" fill="#000000" d="M 63.5,71.5 C 128.168,71.3333 192.834,71.5 257.5,72C 266.428,74.3846 268.928,79.8846 265,88.5C 263.786,90.0488 262.286,91.2155 260.5,92C 193.833,92.6667 127.167,92.6667 60.5,92C 54.8912,88.7231 53.0578,83.8897 55,77.5C 57.21,74.4323 60.0433,72.4323 63.5,71.5 Z"/></g>
<g><path style="opacity:0.889" fill="#000000" d="M 60.5,141.5 C 71.9556,140.461 76.4556,145.461 74,156.5C 67.7106,164.466 61.3772,164.466 55,156.5C 53.0867,149.97 54.92,144.97 60.5,141.5 Z"/></g>
<g><path style="opacity:0.947" fill="#000000" d="M 102.5,141.5 C 155.168,141.333 207.834,141.5 260.5,142C 264.802,143.935 266.802,147.268 266.5,152C 266.337,157.832 263.337,161.165 257.5,162C 207.167,162.667 156.833,162.667 106.5,162C 99.0327,160.574 95.866,156.074 97,148.5C 97.9668,145.379 99.8001,143.046 102.5,141.5 Z"/></g>
<g><path style="opacity:0.944" fill="#000000" d="M 61.5,210.5 C 95.5016,210.333 129.502,210.5 163.5,211C 170.811,214.763 172.645,220.263 169,227.5C 167.421,229.041 165.587,230.208 163.5,231C 129.833,231.667 96.1667,231.667 62.5,231C 55.2891,228.752 52.7891,223.918 55,216.5C 56.4936,213.686 58.6603,211.686 61.5,210.5 Z"/></g>
<g><path style="opacity:0.943" fill="#000000" d="M 297.5,221.5 C 336.117,218.062 365.95,232.395 387,264.5C 407.116,305.292 401.616,342.125 370.5,375C 342.03,398.579 310.364,403.912 275.5,391C 234.415,370 217.248,336.5 224,290.5C 234.207,252.123 258.707,229.123 297.5,221.5 Z M 299.5,242.5 C 290.418,244.7 281.752,248.2 273.5,253C 247.713,272.352 238.546,297.852 246,329.5C 261.716,367.542 289.883,382.376 330.5,374C 368.542,358.284 383.376,330.117 375,289.5C 361.474,255.472 336.307,239.806 299.5,242.5 Z"/></g>
<g><path style="opacity:0.93" fill="#000000" d="M 305.5,264.5 C 331.002,263.51 347.502,275.177 355,299.5C 355.667,304.5 355.667,309.5 355,314.5C 351.345,319.275 346.512,320.775 340.5,319C 338.667,317.833 337.167,316.333 336,314.5C 335.167,295 325,284.833 305.5,284C 300.725,280.345 299.225,275.512 301,269.5C 302.366,267.638 303.866,265.972 305.5,264.5 Z"/></g>
<g><path style="opacity:0.942" fill="#000000" d="M 63.5,279.5 C 94.5018,279.333 125.502,279.5 156.5,280C 164.126,282.654 166.626,287.821 164,295.5C 162.457,297.378 160.624,298.878 158.5,300C 125.833,300.667 93.1667,300.667 60.5,300C 54.8912,296.723 53.0578,291.89 55,285.5C 57.21,282.432 60.0433,280.432 63.5,279.5 Z"/></g>
<g><path style="opacity:0.942" fill="#000000" d="M 61.5,418.5 C 91.8352,418.333 122.168,418.5 152.5,419C 159.053,421.73 161.22,426.563 159,433.5C 157.749,436.381 155.583,438.214 152.5,439C 122.5,439.667 92.5,439.667 62.5,439C 55.2891,436.752 52.7891,431.918 55,424.5C 56.4936,421.686 58.6603,419.686 61.5,418.5 Z"/></g>
<g><path style="opacity:0.889" fill="#000000" d="M 187.5,418.5 C 198.032,418.199 202.199,423.199 200,433.5C 195.66,439.864 190.16,441.031 183.5,437C 180.64,433.319 179.807,429.152 181,424.5C 182.494,421.686 184.66,419.686 187.5,418.5 Z"/></g>
</svg>
