<?xml version="1.0" encoding="UTF-8"?>
<!DOCTYPE svg PUBLIC "-//W3C//DTD SVG 1.1//EN" "http://www.w3.org/Graphics/SVG/1.1/DTD/svg11.dtd">
<svg xmlns="http://www.w3.org/2000/svg" version="1.1" width="512px" height="512px" style="shape-rendering:geometricPrecision; text-rendering:geometricPrecision; image-rendering:optimizeQuality; fill-rule:evenodd; clip-rule:evenodd" xmlns:xlink="http://www.w3.org/1999/xlink">
<g><path style="opacity:0.968" fill="#000000" d="M 5.5,-0.5 C 172.167,-0.5 338.833,-0.5 505.5,-0.5C 507.833,1.16667 509.833,3.16667 511.5,5.5C 511.5,8.83333 511.5,12.1667 511.5,15.5C 509.243,17.9233 506.576,19.7567 503.5,21C 338.167,21.6667 172.833,21.6667 7.5,21C 4.42408,19.7567 1.75741,17.9233 -0.5,15.5C -0.5,12.1667 -0.5,8.83333 -0.5,5.5C 1.16667,3.16667 3.16667,1.16667 5.5,-0.5 Z"/></g>
<g><path style="opacity:0.968" fill="#000000" d="M 511.5,69.5 C 511.5,72.8333 511.5,76.1667 511.5,79.5C 509.243,81.9233 506.576,83.7567 503.5,85C 338.167,85.6667 172.833,85.6667 7.5,85C 4.42408,83.7567 1.75741,81.9233 -0.5,79.5C -0.5,76.1667 -0.5,72.8333 -0.5,69.5C 0.977392,67.193 2.97739,65.3597 5.5,64C 172.167,63.3333 338.833,63.3333 505.5,64C 508.023,65.3597 510.023,67.193 511.5,69.5 Z"/></g>
<g><path style="opacity:0.968" fill="#000000" d="M 511.5,133.5 C 511.5,136.833 511.5,140.167 511.5,143.5C 509.243,145.923 506.576,147.757 503.5,149C 338.167,149.667 172.833,149.667 7.5,149C 4.42408,147.757 1.75741,145.923 -0.5,143.5C -0.5,140.167 -0.5,136.833 -0.5,133.5C 0.977392,131.193 2.97739,129.36 5.5,128C 172.167,127.333 338.833,127.333 505.5,128C 508.023,129.36 510.023,131.193 511.5,133.5 Z"/></g>
<g><path style="opacity:0.968" fill="#000000" d="M 511.5,197.5 C 511.5,200.833 511.5,204.167 511.5,207.5C 509.243,209.923 506.576,211.757 503.5,213C 338.167,213.667 172.833,213.667 7.5,213C 4.42408,211.757 1.75741,209.923 -0.5,207.5C -0.5,204.167 -0.5,200.833 -0.5,197.5C 0.977392,195.193 2.97739,193.36 5.5,192C 172.167,191.333 338.833,191.333 505.5,192C 508.023,193.36 510.023,195.193 511.5,197.5 Z"/></g>
<g><path style="opacity:0.968" fill="#000000" d="M 511.5,261.5 C 511.5,264.833 511.5,268.167 511.5,271.5C 509.243,273.923 506.576,275.757 503.5,277C 338.167,277.667 172.833,277.667 7.5,277C 4.42408,275.757 1.75741,273.923 -0.5,271.5C -0.5,268.167 -0.5,264.833 -0.5,261.5C 0.977392,259.193 2.97739,257.36 5.5,256C 172.167,255.333 338.833,255.333 505.5,256C 508.023,257.36 510.023,259.193 511.5,261.5 Z"/></g>
<g><path style="opacity:0.968" fill="#000000" d="M 511.5,325.5 C 511.5,328.833 511.5,332.167 511.5,335.5C 509.243,337.923 506.576,339.757 503.5,341C 338.167,341.667 172.833,341.667 7.5,341C 4.42408,339.757 1.75741,337.923 -0.5,335.5C -0.5,332.167 -0.5,328.833 -0.5,325.5C 0.977392,323.193 2.97739,321.36 5.5,320C 172.167,319.333 338.833,319.333 505.5,320C 508.023,321.36 510.023,323.193 511.5,325.5 Z"/></g>
<g><path style="opacity:0.967" fill="#000000" d="M 511.5,407.5 C 511.5,434.167 511.5,460.833 511.5,487.5C 507.833,499.833 499.833,507.833 487.5,511.5C 332.833,511.5 178.167,511.5 23.5,511.5C 11.1667,507.833 3.16667,499.833 -0.5,487.5C -0.5,460.833 -0.5,434.167 -0.5,407.5C 2.98533,395.182 10.9853,387.349 23.5,384C 178.167,383.333 332.833,383.333 487.5,384C 500.015,387.349 508.015,395.182 511.5,407.5 Z M 28.5,405.5 C 179.834,405.333 331.167,405.5 482.5,406C 486,406.833 488.167,409 489,412.5C 489.667,435.833 489.667,459.167 489,482.5C 488.167,486 486,488.167 482.5,489C 331.167,489.667 179.833,489.667 28.5,489C 25,488.167 22.8333,486 22,482.5C 21.3333,459.167 21.3333,435.833 22,412.5C 23.0183,408.985 25.1849,406.652 28.5,405.5 Z"/></g>
</svg>
