<?xml version="1.0" encoding="UTF-8"?>
<!DOCTYPE svg PUBLIC "-//W3C//DTD SVG 1.1//EN" "http://www.w3.org/Graphics/SVG/1.1/DTD/svg11.dtd">
<svg xmlns="http://www.w3.org/2000/svg" version="1.1" width="512px" height="512px" style="shape-rendering:geometricPrecision; text-rendering:geometricPrecision; image-rendering:optimizeQuality; fill-rule:evenodd; clip-rule:evenodd" xmlns:xlink="http://www.w3.org/1999/xlink">
<g><path style="opacity:0.98" fill="#000000" d="M 35.5,18.5 C 127.167,18.5 218.833,18.5 310.5,18.5C 310.333,39.1694 310.5,59.836 311,80.5C 311.5,81 312,81.5 312.5,82C 333.742,83.4775 355.075,83.9775 376.5,83.5C 376.833,145.837 376.5,208.17 375.5,270.5C 343.664,289.253 311.664,307.753 279.5,326C 278.299,326.903 277.465,328.069 277,329.5C 276.501,334.489 276.334,339.489 276.5,344.5C 240.832,344.333 205.165,344.5 169.5,345C 165.381,349.073 165.715,352.74 170.5,356C 205.832,356.5 241.165,356.667 276.5,356.5C 276.5,364.167 276.5,371.833 276.5,379.5C 241.498,379.333 206.498,379.5 171.5,380C 164.833,384 164.833,388 171.5,392C 206.498,392.5 241.498,392.667 276.5,392.5C 276.333,410.836 276.5,429.17 277,447.5C 277.785,449.286 278.951,450.786 280.5,452C 286.997,455.414 293.33,459.081 299.5,463C 211.501,463.5 123.501,463.667 35.5,463.5C 35.5,315.167 35.5,166.833 35.5,18.5 Z M 70.5,114.5 C 93.1691,114.333 115.836,114.5 138.5,115C 139.416,115.374 140.25,115.874 141,116.5C 142.136,128.266 142.636,140.099 142.5,152C 151.954,186.808 139.287,198.974 104.5,188.5C 93.1667,188.333 81.8333,188.167 70.5,188C 70,187.5 69.5,187 69,186.5C 67.3549,163.922 67.0216,141.255 68,118.5C 68.6622,117.016 69.4955,115.683 70.5,114.5 Z M 170.5,127.5 C 226.501,127.333 282.501,127.5 338.5,128C 342.487,131.713 342.487,135.38 338.5,139C 282.167,139.667 225.833,139.667 169.5,139C 165.446,134.773 165.78,130.939 170.5,127.5 Z M 169.5,163.5 C 225.834,163.333 282.168,163.5 338.5,164C 342.619,168.073 342.285,171.74 337.5,175C 281.833,175.667 226.167,175.667 170.5,175C 165.697,171.465 165.364,167.632 169.5,163.5 Z M 71.5,222.5 C 93.8358,222.333 116.169,222.5 138.5,223C 139.333,223.833 140.167,224.667 141,225.5C 142.645,247.745 142.978,270.078 142,292.5C 141.535,293.931 140.701,295.097 139.5,296C 117.255,297.645 94.9218,297.978 72.5,297C 70.714,296.215 69.214,295.049 68,293.5C 67.3333,271.167 67.3333,248.833 68,226.5C 68.6897,224.65 69.8564,223.316 71.5,222.5 Z M 171.5,235.5 C 226.501,235.333 281.501,235.5 336.5,236C 343.152,240.053 343.152,244.053 336.5,248C 281.5,248.667 226.5,248.667 171.5,248C 164.939,243.845 164.939,239.678 171.5,235.5 Z M 170.5,271.5 C 226.501,271.333 282.501,271.5 338.5,272C 343.452,275.853 343.452,279.52 338.5,283C 282.167,283.667 225.833,283.667 169.5,283C 165.446,278.773 165.78,274.939 170.5,271.5 Z M 72.5,330.5 C 94.1692,330.333 115.836,330.5 137.5,331C 138.931,331.465 140.097,332.299 141,333.5C 142.645,355.745 142.978,378.078 142,400.5C 141.215,402.286 140.049,403.786 138.5,405C 116.167,405.667 93.8333,405.667 71.5,405C 70.5838,404.626 69.7504,404.126 69,403.5C 67.3546,380.588 67.0212,357.588 68,334.5C 69.3968,332.93 70.8968,331.596 72.5,330.5 Z"/></g>
<g><path style="opacity:0.928" fill="#000000" d="M 322.5,27.5 C 337.602,41.0997 352.268,55.2664 366.5,70C 351.837,70.4999 337.17,70.6666 322.5,70.5C 322.5,56.1667 322.5,41.8333 322.5,27.5 Z"/></g>
<g><path style="opacity:0.955" fill="#000000" d="M 79.5,126.5 C 96.1667,126.5 112.833,126.5 129.5,126.5C 129.5,143.167 129.5,159.833 129.5,176.5C 112.833,176.5 96.1667,176.5 79.5,176.5C 79.5,159.833 79.5,143.167 79.5,126.5 Z"/></g>
<g><path style="opacity:0.956" fill="#000000" d="M 80.5,234.5 C 96.8333,234.5 113.167,234.5 129.5,234.5C 129.5,251.167 129.5,267.833 129.5,284.5C 112.833,284.5 96.1667,284.5 79.5,284.5C 79.1819,267.756 79.5152,251.089 80.5,234.5 Z"/></g>
<g><path style="opacity:0.953" fill="#000000" d="M 381.5,280.5 C 410.942,297.057 440.275,313.89 469.5,331C 457.332,338.585 444.999,345.918 432.5,353C 431.167,353.667 429.833,353.667 428.5,353C 400.167,336.5 371.833,320 343.5,303.5C 356.23,295.808 368.897,288.141 381.5,280.5 Z"/></g>
<g><path style="opacity:0.95" fill="#000000" d="M 329.5,310.5 C 359.186,326.678 388.519,343.512 417.5,361C 405.963,368.033 394.297,374.866 382.5,381.5C 353.371,364.866 324.371,348.033 295.5,331C 307.063,324.392 318.396,317.559 329.5,310.5 Z"/></g>
<g><path style="opacity:0.976" fill="#000000" d="M 289.5,342.5 C 318.132,358.778 346.799,375.111 375.5,391.5C 376.833,425.167 376.833,458.833 375.5,492.5C 347.003,476.419 318.67,460.086 290.5,443.5C 289.5,409.84 289.167,376.173 289.5,342.5 Z"/></g>
<g><path style="opacity:0.969" fill="#000000" d="M 473.5,342.5 C 474.833,358.986 475.5,375.82 475.5,393C 475.167,409.833 474.833,426.667 474.5,443.5C 446.33,460.086 417.997,476.419 389.5,492.5C 388.167,458.833 388.167,425.167 389.5,391.5C 401.585,384.374 413.752,377.374 426,370.5C 426.333,381.833 426.667,393.167 427,404.5C 430.48,409.452 434.147,409.452 438,404.5C 438.333,390.833 438.667,377.167 439,363.5C 450.647,356.6 462.147,349.6 473.5,342.5 Z"/></g>
<g><path style="opacity:0.955" fill="#000000" d="M 79.5,343.5 C 96.1667,343.5 112.833,343.5 129.5,343.5C 129.5,360.167 129.5,376.833 129.5,393.5C 112.833,393.5 96.1667,393.5 79.5,393.5C 79.5,376.833 79.5,360.167 79.5,343.5 Z"/></g>
</svg>
