<?xml version="1.0" encoding="UTF-8"?>
<!DOCTYPE svg PUBLIC "-//W3C//DTD SVG 1.1//EN" "http://www.w3.org/Graphics/SVG/1.1/DTD/svg11.dtd">
<svg xmlns="http://www.w3.org/2000/svg" version="1.1" width="512px" height="512px" style="shape-rendering:geometricPrecision; text-rendering:geometricPrecision; image-rendering:optimizeQuality; fill-rule:evenodd; clip-rule:evenodd" xmlns:xlink="http://www.w3.org/1999/xlink">
<g><path style="opacity:0.991" fill="#000000" d="M 71.5,-0.5 C 162.167,-0.5 252.833,-0.5 343.5,-0.5C 365.649,5.48086 380.149,19.4809 387,41.5C 388.627,71.4599 388.96,101.46 388,131.5C 382.642,143.091 373.809,146.925 361.5,143C 358,140.833 355.167,138 353,134.5C 351.693,107.562 351.026,80.5619 351,53.5C 349.946,46.2088 346.113,41.0421 339.5,38C 265.211,36.3457 190.877,36.0124 116.5,37C 154.997,59.0809 193.331,81.4143 231.5,104C 243.719,113.936 250.552,126.77 252,142.5C 252.5,225.833 252.667,309.166 252.5,392.5C 280.835,392.667 309.169,392.5 337.5,392C 345.3,389.2 349.8,383.7 351,375.5C 351.333,352.5 351.667,329.5 352,306.5C 356.162,296.499 363.662,292.333 374.5,294C 381.237,295.736 385.737,299.903 388,306.5C 388.667,332.167 388.667,357.833 388,383.5C 382.288,409.878 366.122,425.378 339.5,430C 310.502,430.5 281.502,430.667 252.5,430.5C 252.666,440.839 252.5,451.172 252,461.5C 247.788,488.209 232.621,504.876 206.5,511.5C 199.5,511.5 192.5,511.5 185.5,511.5C 179.826,509.659 174.16,507.493 168.5,505C 128.833,482 89.1667,459 49.5,436C 38.4887,428.15 31.3221,417.65 28,404.5C 26.3428,284.868 26.0095,165.202 27,45.5C 32.906,21.4287 47.7394,6.09541 71.5,-0.5 Z"/></g>
<g><path style="opacity:0.963" fill="#000000" d="M 409.5,144.5 C 416.147,143.592 422.147,145.092 427.5,149C 445,166.5 462.5,184 480,201.5C 485.526,209.619 485.859,217.952 481,226.5C 462.5,245 444,263.5 425.5,282C 415.607,286.956 406.774,285.456 399,277.5C 394.772,270.681 394.439,263.681 398,256.5C 404.802,248.697 411.969,241.197 419.5,234C 373.5,233.667 327.5,233.333 281.5,233C 272.619,230.088 267.952,223.921 267.5,214.5C 268.498,204.004 274.164,197.837 284.5,196C 329.5,195.667 374.5,195.333 419.5,195C 412.667,188.167 405.833,181.333 399,174.5C 392.423,160.757 395.923,150.757 409.5,144.5 Z"/></g>
</svg>
