<?xml version="1.0" encoding="UTF-8"?>
<!DOCTYPE svg PUBLIC "-//W3C//DTD SVG 1.1//EN" "http://www.w3.org/Graphics/SVG/1.1/DTD/svg11.dtd">
<svg xmlns="http://www.w3.org/2000/svg" version="1.1" width="512px" height="512px" style="shape-rendering:geometricPrecision; text-rendering:geometricPrecision; image-rendering:optimizeQuality; fill-rule:evenodd; clip-rule:evenodd" xmlns:xlink="http://www.w3.org/1999/xlink">
<g><path style="opacity:0.987" fill="#000000" d="M 153.5,20.5 C 249.834,20.3333 346.167,20.5 442.5,21C 469,26.1667 484.833,42 490,68.5C 490.667,164.833 490.667,261.167 490,357.5C 485.618,381.967 471.451,397.3 447.5,403.5C 447.667,318.166 447.5,232.833 447,147.5C 443.515,102.35 419.682,74.8497 375.5,65C 286.185,63.5286 196.851,63.0286 107.5,63.5C 113.941,39.619 129.275,25.2857 153.5,20.5 Z"/></g>
<g><path style="opacity:0.992" fill="#000000" d="M 70.5,105.5 C 165.501,105.333 260.501,105.5 355.5,106C 378.034,109.2 393.534,121.367 402,142.5C 403.472,146.723 404.472,151.057 405,155.5C 405.667,250.5 405.667,345.5 405,440.5C 400.734,468.1 384.9,484.6 357.5,490C 261.167,490.667 164.833,490.667 68.5,490C 42,484.833 26.1667,469 21,442.5C 20.3333,346.167 20.3333,249.833 21,153.5C 26.5766,126.088 43.0766,110.088 70.5,105.5 Z M 212.5,191.5 C 222.652,192.651 229.486,197.985 233,207.5C 233.5,230.831 233.667,254.164 233.5,277.5C 256.836,277.333 280.169,277.5 303.5,278C 315.738,282.635 320.572,291.468 318,304.5C 315.5,311 311,315.5 304.5,318C 280.872,319.438 257.205,319.938 233.5,319.5C 233.667,342.502 233.5,365.502 233,388.5C 229.893,398.273 223.226,403.606 213,404.5C 203.182,403.68 196.516,398.68 193,389.5C 191.563,366.205 191.063,342.872 191.5,319.5C 168.128,319.937 144.795,319.437 121.5,318C 106.662,310.814 103.162,299.98 111,285.5C 113.928,281.619 117.761,279.119 122.5,278C 145.498,277.5 168.498,277.333 191.5,277.5C 191.073,253.799 191.573,230.132 193,206.5C 196.556,197.492 203.056,192.492 212.5,191.5 Z"/></g>
</svg>
