<?xml version="1.0" encoding="UTF-8"?>
<!DOCTYPE svg PUBLIC "-//W3C//DTD SVG 1.1//EN" "http://www.w3.org/Graphics/SVG/1.1/DTD/svg11.dtd">
<svg xmlns="http://www.w3.org/2000/svg" version="1.1" width="512px" height="512px" style="shape-rendering:geometricPrecision; text-rendering:geometricPrecision; image-rendering:optimizeQuality; fill-rule:evenodd; clip-rule:evenodd" xmlns:xlink="http://www.w3.org/1999/xlink">
<g><path style="opacity:0.975" fill="#000000" d="M 253.5,22.5 C 255.655,22.372 257.655,22.872 259.5,24C 280.167,36 300.833,48 321.5,60C 255.915,98.5821 190.082,136.749 124,174.5C 102.047,162.049 80.214,149.382 58.5,136.5C 123.363,98.2361 188.363,60.2361 253.5,22.5 Z"/></g>
<g><path style="opacity:0.963" fill="#000000" d="M 332.5,67.5 C 346.887,74.5297 360.887,82.363 374.5,91C 309.664,128.919 244.664,166.586 179.5,204C 177.833,204.667 176.167,204.667 174.5,204C 161.703,196.699 149.036,189.199 136.5,181.5C 201.896,143.473 267.23,105.473 332.5,67.5 Z"/></g>
<g><path style="opacity:0.974" fill="#000000" d="M 385.5,98.5 C 386.873,98.3433 388.207,98.51 389.5,99C 410.167,111 430.833,123 451.5,135C 452.711,135.893 452.711,136.726 451.5,137.5C 386.167,175.167 320.833,212.833 255.5,250.5C 233.336,237.919 211.336,225.086 189.5,212C 255.06,174.392 320.393,136.559 385.5,98.5 Z"/></g>
<g><path style="opacity:0.976" fill="#000000" d="M 51.5,147.5 C 73.0593,158.95 94.3926,170.95 115.5,183.5C 116.333,216.162 116.833,248.828 117,281.5C 118.47,283.152 120.303,284.152 122.5,284.5C 130.109,281.793 137.775,279.626 145.5,278C 154.167,287.333 162.833,296.667 171.5,306C 175.457,308.385 178.624,307.552 181,303.5C 181.167,276.494 181.667,249.494 182.5,222.5C 204.795,234.967 226.962,247.633 249,260.5C 249.5,336.499 249.667,412.499 249.5,488.5C 183.637,451.332 117.97,413.666 52.5,375.5C 51.5,299.503 51.1667,223.503 51.5,147.5 Z M 71.5,315.5 C 75.5115,315.502 79.1781,316.668 82.5,319C 99.248,328.456 115.748,338.289 132,348.5C 133.329,354.834 130.829,357.668 124.5,357C 106.252,346.626 88.0849,336.126 70,325.5C 67.7292,321.697 68.2292,318.363 71.5,315.5 Z M 73.5,347.5 C 92.2693,357.721 110.936,368.221 129.5,379C 132.654,381.775 133.154,384.942 131,388.5C 129.087,390.187 126.92,390.687 124.5,390C 106.5,379.667 88.5,369.333 70.5,359C 66.656,354.018 67.656,350.185 73.5,347.5 Z"/></g>
<g><path style="opacity:0.987" fill="#000000" d="M 456.5,147.5 C 457.5,147.5 458.5,147.5 459.5,147.5C 459.667,223.501 459.5,299.501 459,375.5C 393.476,413.841 327.642,451.508 261.5,488.5C 261.333,412.499 261.5,336.499 262,260.5C 327.002,222.97 391.835,185.303 456.5,147.5 Z"/></g>
<g><path style="opacity:0.948" fill="#000000" d="M 128.5,191.5 C 142.189,198.763 155.689,206.43 169,214.5C 169.833,237.84 169.666,261.174 168.5,284.5C 161.938,277.859 155.272,271.359 148.5,265C 141.718,265.755 135.051,267.255 128.5,269.5C 128.5,243.5 128.5,217.5 128.5,191.5 Z"/></g>
</svg>
