<?xml version="1.0" encoding="UTF-8"?>
<!DOCTYPE svg PUBLIC "-//W3C//DTD SVG 1.1//EN" "http://www.w3.org/Graphics/SVG/1.1/DTD/svg11.dtd">
<svg xmlns="http://www.w3.org/2000/svg" version="1.1" width="512px" height="512px" style="shape-rendering:geometricPrecision; text-rendering:geometricPrecision; image-rendering:optimizeQuality; fill-rule:evenodd; clip-rule:evenodd" xmlns:xlink="http://www.w3.org/1999/xlink">
<g><path style="opacity:0.969" fill="#000000" d="M 73.5,22.5 C 93.6957,31.0664 113.862,39.733 134,48.5C 134.667,65.8333 134.667,83.1667 134,100.5C 131.546,139.113 111.546,162.78 74,171.5C 41.2627,164.429 21.5961,144.429 15,111.5C 14.5,90.1693 14.3334,68.8359 14.5,47.5C 34.4762,39.7354 54.1428,31.4021 73.5,22.5 Z M 95.5,72.5 C 103.863,71.9487 107.03,75.6153 105,83.5C 94.7401,96.877 83.9068,109.71 72.5,122C 70.5,122.667 68.5,122.667 66.5,122C 58.6667,114.167 50.8333,106.333 43,98.5C 41.8397,89.9889 45.3397,86.8222 53.5,89C 58.3772,94.2128 63.5438,99.0461 69,103.5C 78.0784,93.2643 86.9118,82.931 95.5,72.5 Z"/></g>
<g><path style="opacity:0.977" fill="#000000" d="M 149.5,64.5 C 202.833,64.5 256.167,64.5 309.5,64.5C 309.333,81.8365 309.5,99.1699 310,116.5C 312.148,124.333 317.315,128.5 325.5,129C 341.83,129.5 358.163,129.667 374.5,129.5C 374.833,161.507 374.5,193.507 373.5,225.5C 365.287,221.697 357.287,222.197 349.5,227C 344,232.5 338.5,238 333,243.5C 328.364,250.442 327.531,257.775 330.5,265.5C 328.243,269.012 325.743,272.346 323,275.5C 322.857,271.023 320.691,268.189 316.5,267C 287.833,266.333 259.167,266.333 230.5,267C 222.94,271.293 222.607,275.96 229.5,281C 258.839,281.167 288.172,281.667 317.5,282.5C 305.272,298.171 290.772,311.171 274,321.5C 266.535,319.053 259.369,319.887 252.5,324C 244.879,330.614 238.379,338.114 233,346.5C 231.844,350.418 231.344,354.418 231.5,358.5C 225.406,360.021 223.573,363.687 226,369.5C 227.319,371.487 229.152,372.654 231.5,373C 235.167,373.333 238.833,373.667 242.5,374C 245.683,377.015 248.683,380.182 251.5,383.5C 243.419,384.061 235.419,384.895 227.5,386C 223.272,390.336 223.605,394.336 228.5,398C 241.739,399.297 255.072,399.964 268.5,400C 277.167,408.667 285.833,417.333 294.5,426C 304.062,432.155 313.395,431.821 322.5,425C 327.333,420.167 332.167,415.333 337,410.5C 338.711,408.044 340.044,405.377 341,402.5C 341.456,396.796 341.456,391.13 341,385.5C 342.574,384.016 343.907,382.349 345,380.5C 354.303,390.804 363.97,400.804 374,410.5C 374.5,424.829 374.667,439.163 374.5,453.5C 362.833,453.5 351.167,453.5 339.5,453.5C 337.883,443.712 332.216,437.546 322.5,435C 290.833,434.333 259.167,434.333 227.5,435C 217.798,437.532 212.132,443.699 210.5,453.5C 164.833,453.5 119.167,453.5 73.5,453.5C 73.3333,364.833 73.5,276.166 74,187.5C 114.661,178.839 139.327,154.173 148,113.5C 149.306,97.195 149.806,80.8617 149.5,64.5 Z M 133.5,164.5 C 151.17,164.333 168.836,164.5 186.5,165C 187.931,165.465 189.097,166.299 190,167.5C 191.142,177.071 191.642,186.738 191.5,196.5C 199.409,225.424 188.909,235.758 160,227.5C 150.833,227.333 141.667,227.167 132.5,227C 131.584,226.626 130.75,226.126 130,225.5C 128.359,206.59 128.026,187.59 129,168.5C 130.397,166.93 131.897,165.596 133.5,164.5 Z M 230.5,175.5 C 259.502,175.333 288.502,175.5 317.5,176C 321.861,178.226 323.361,181.726 322,186.5C 320.786,188.049 319.286,189.215 317.5,190C 288.167,190.667 258.833,190.667 229.5,190C 222.756,184.718 223.089,179.884 230.5,175.5 Z M 230.5,201.5 C 249.503,201.333 268.503,201.5 287.5,202C 292.599,203.695 294.432,207.195 293,212.5C 291.833,213.667 290.667,214.833 289.5,216C 269.5,216.667 249.5,216.667 229.5,216C 222.712,210.811 223.046,205.977 230.5,201.5 Z M 134.5,255.5 C 151.503,255.333 168.503,255.5 185.5,256C 187.329,256.273 188.829,257.107 190,258.5C 191.64,277.076 191.974,295.743 191,314.5C 190.535,315.931 189.701,317.097 188.5,318C 169.5,318.667 150.5,318.667 131.5,318C 131,317.5 130.5,317 130,316.5C 128.359,297.59 128.026,278.59 129,259.5C 130.5,257.531 132.333,256.198 134.5,255.5 Z M 232.5,292.5 C 250.503,292.333 268.503,292.5 286.5,293C 293.347,294.866 295.18,299.032 292,305.5C 290.352,306.717 288.519,307.55 286.5,308C 268.167,308.667 249.833,308.667 231.5,308C 225.457,306.084 223.624,302.251 226,296.5C 227.792,294.372 229.958,293.039 232.5,292.5 Z M 131.5,347.5 C 150.17,347.333 168.836,347.5 187.5,348C 188.416,348.374 189.25,348.874 190,349.5C 191.64,368.076 191.974,386.743 191,405.5C 190.535,406.931 189.701,408.097 188.5,409C 170.257,410.64 151.924,410.973 133.5,410C 131.714,409.215 130.214,408.049 129,406.5C 128.333,388.167 128.333,369.833 129,351.5C 129.662,350.016 130.496,348.683 131.5,347.5 Z"/></g>
<g><path style="opacity:0.927" fill="#000000" d="M 324.5,64.5 C 341.581,80.0791 358.248,96.2457 374.5,113C 357.837,113.5 341.17,113.667 324.5,113.5C 324.5,97.1667 324.5,80.8333 324.5,64.5 Z"/></g>
<g><path style="opacity:0.917" fill="#000000" d="M 171.5,177.5 C 180.017,177.855 183.183,182.188 181,190.5C 174.953,198.092 168.786,205.592 162.5,213C 159.97,214.422 157.303,214.755 154.5,214C 147.368,208.874 141.702,202.541 137.5,195C 139.301,186.857 143.967,184.524 151.5,188C 153.017,189.685 154.684,191.185 156.5,192.5C 159.56,189.393 162.394,186.059 165,182.5C 166.805,180.174 168.972,178.508 171.5,177.5 Z"/></g>
<g><path style="opacity:0.942" fill="#000000" d="M 361.5,237.5 C 363.482,237.995 365.482,238.495 367.5,239C 385.667,257.167 403.833,275.333 422,293.5C 424,297.167 424,300.833 422,304.5C 417.833,308.667 413.667,312.833 409.5,317C 405.139,318.888 401.139,318.222 397.5,315C 380.333,297.833 363.167,280.667 346,263.5C 343.296,260.001 342.963,256.334 345,252.5C 350.121,246.87 355.621,241.87 361.5,237.5 Z"/></g>
<g><path style="opacity:0.921" fill="#000000" d="M 169.5,269.5 C 178.657,268.489 182.49,272.489 181,281.5C 175.224,289.942 168.724,297.775 161.5,305C 158.833,305.667 156.167,305.667 153.5,305C 148.667,300.167 143.833,295.333 139,290.5C 136.367,283.243 138.867,278.91 146.5,277.5C 150.894,278.378 154.394,280.711 157,284.5C 160.684,278.993 164.851,273.993 169.5,269.5 Z"/></g>
<g><path style="opacity:0.956" fill="#000000" d="M 339.5,278.5 C 354.761,292.093 369.428,306.426 383.5,321.5C 363.5,336.833 345.833,354.5 330.5,374.5C 315.833,360.5 301.5,346.167 287.5,331.5C 307.534,316.466 324.867,298.8 339.5,278.5 Z"/></g>
<g><path style="opacity:0.943" fill="#000000" d="M 265.5,334.5 C 267.086,335.148 268.753,335.648 270.5,336C 288.667,354.167 306.833,372.333 325,390.5C 327,394.167 327,397.833 325,401.5C 320.833,405.667 316.667,409.833 312.5,414C 308.634,416.12 304.967,415.786 301.5,413C 284,395.5 266.5,378 249,360.5C 246.296,357.001 245.963,353.334 248,349.5C 253.196,343.449 259.029,338.449 265.5,334.5 Z"/></g>
<g><path style="opacity:0.959" fill="#000000" d="M 375.5,346.5 C 377.783,346.608 379.783,347.441 381.5,349C 420.697,387.198 460.197,425.031 500,462.5C 501.52,466.375 501.854,470.375 501,474.5C 495.167,480.333 489.333,486.167 483.5,492C 478.324,494.039 473.657,493.206 469.5,489.5C 431.151,449.651 392.984,409.651 355,369.5C 354.333,368.833 354.333,368.167 355,367.5C 358.038,364.797 360.705,361.797 363,358.5C 367.669,354.997 371.836,350.997 375.5,346.5 Z"/></g>
<g><path style="opacity:0.912" fill="#000000" d="M 169.5,360.5 C 178.711,359.542 182.545,363.542 181,372.5C 175.549,380.286 169.715,387.786 163.5,395C 160.298,396.483 156.964,396.817 153.5,396C 146.305,391.147 140.972,384.813 137.5,377C 140.046,368.928 145.046,366.928 152.5,371C 154,372.5 155.5,374 157,375.5C 160.698,370.1 164.865,365.1 169.5,360.5 Z"/></g>
<g><path style="opacity:0.952" fill="#000000" d="M 229.5,449.5 C 259.835,449.333 290.168,449.5 320.5,450C 322.667,450.833 324.167,452.333 325,454.5C 326.977,463.555 329.144,472.555 331.5,481.5C 294.173,482.5 256.839,482.833 219.5,482.5C 220.853,473.418 222.687,464.418 225,455.5C 225.599,452.746 227.099,450.746 229.5,449.5 Z"/></g>
</svg>
