<?xml version="1.0" encoding="UTF-8"?>
<!DOCTYPE svg PUBLIC "-//W3C//DTD SVG 1.1//EN" "http://www.w3.org/Graphics/SVG/1.1/DTD/svg11.dtd">
<svg xmlns="http://www.w3.org/2000/svg" version="1.1" width="512px" height="512px" style="shape-rendering:geometricPrecision; text-rendering:geometricPrecision; image-rendering:optimizeQuality; fill-rule:evenodd; clip-rule:evenodd" xmlns:xlink="http://www.w3.org/1999/xlink">
<g><path style="opacity:0.947" fill="#000000" d="M 188.5,52.5 C 249.407,49.5359 296.573,73.2025 330,123.5C 352.243,161.537 357.576,201.87 346,244.5C 339.802,264.903 329.968,283.237 316.5,299.5C 321.818,305.319 327.318,310.985 333,316.5C 345.285,311.588 356.785,313.088 367.5,321C 390.667,344.167 413.833,367.333 437,390.5C 446.565,403.214 447.565,416.547 440,430.5C 429.81,443.896 416.643,448.063 400.5,443C 396.835,441.503 393.502,439.503 390.5,437C 367.667,414.167 344.833,391.333 322,368.5C 313.175,357.712 311.342,345.878 316.5,333C 310.985,327.318 305.319,321.818 299.5,316.5C 250.93,354.272 197.93,361.772 140.5,339C 78.9907,307.514 49.824,257.014 53,187.5C 60.5386,129.644 90.7052,88.4776 143.5,64C 158.11,58.0981 173.11,54.2648 188.5,52.5 Z M 193.5,74.5 C 244.952,73.6355 284.452,94.6355 312,137.5C 334.573,179.15 335.239,221.15 314,263.5C 285.834,310.171 244.334,332.004 189.5,329C 134.544,321.035 98.044,290.868 80,238.5C 66.7299,186.064 79.8965,141.564 119.5,105C 141.119,87.3547 165.786,77.1881 193.5,74.5 Z M 344.5,335.5 C 347.852,335.784 350.852,336.95 353.5,339C 375.667,361.167 397.833,383.333 420,405.5C 425.039,414.407 422.706,420.073 413,422.5C 410.268,422.385 407.768,421.552 405.5,420C 383.333,397.833 361.167,375.667 339,353.5C 334.015,345.445 335.848,339.445 344.5,335.5 Z"/></g>
</svg>
