<?xml version="1.0" encoding="UTF-8"?>
<!DOCTYPE svg PUBLIC "-//W3C//DTD SVG 1.1//EN" "http://www.w3.org/Graphics/SVG/1.1/DTD/svg11.dtd">
<svg xmlns="http://www.w3.org/2000/svg" version="1.1" width="512px" height="512px" style="shape-rendering:geometricPrecision; text-rendering:geometricPrecision; image-rendering:optimizeQuality; fill-rule:evenodd; clip-rule:evenodd" xmlns:xlink="http://www.w3.org/1999/xlink">
<g><path style="opacity:0.981" fill="#000000" d="M 237.5,-0.5 C 249.5,-0.5 261.5,-0.5 273.5,-0.5C 343.715,10.3654 390.548,49.3654 414,116.5C 430.235,178.023 417.235,232.357 375,279.5C 369.647,284.354 364.147,289.021 358.5,293.5C 346.822,249.988 319.156,222.822 275.5,212C 269.171,211.141 262.838,210.308 256.5,209.5C 290.265,206.722 313.431,189.722 326,158.5C 335.41,125.07 326.91,97.2367 300.5,75C 273.248,56.6415 245.248,55.3082 216.5,71C 183.818,94.3852 173.984,125.219 187,163.5C 200.455,191.831 222.955,207.164 254.5,209.5C 209.952,212.677 178.119,234.343 159,274.5C 156.532,280.738 154.365,287.071 152.5,293.5C 106.431,255.521 85.9306,206.521 91,146.5C 100.734,80.1164 136.567,34.283 198.5,9C 211.338,4.60472 224.338,1.43805 237.5,-0.5 Z"/></g>
<g><path style="opacity:0.976" fill="#000000" d="M 245.5,89.5 C 268.793,86.3955 285.959,95.0622 297,115.5C 305.029,136.545 300.862,154.712 284.5,170C 272.92,178.811 259.92,181.811 245.5,179C 227.333,174.167 215.833,162.667 211,144.5C 207.854,116.76 219.354,98.427 245.5,89.5 Z"/></g>
<g><path style="opacity:0.98" fill="#000000" d="M 242.5,239.5 C 280.373,235.847 307.873,250.847 325,284.5C 329.034,293.492 330.534,302.826 329.5,312.5C 292.706,330.35 254.373,334.517 214.5,325C 203.005,322.113 192.005,317.947 181.5,312.5C 181.428,285.479 192.761,264.645 215.5,250C 224.178,245.315 233.178,241.815 242.5,239.5 Z"/></g>
<g><path style="opacity:0.971" fill="#000000" d="M 511.5,410.5 C 511.5,411.167 511.5,411.833 511.5,412.5C 497.232,425.266 483.398,438.599 470,452.5C 472.727,472.199 475.894,491.866 479.5,511.5C 478.5,511.5 477.5,511.5 476.5,511.5C 459.792,502.394 442.959,493.394 426,484.5C 409.041,493.394 392.208,502.394 375.5,511.5C 374.5,511.5 373.5,511.5 372.5,511.5C 376.322,491.903 379.489,472.236 382,452.5C 368.622,438.621 354.789,425.287 340.5,412.5C 326.281,426.219 312.281,440.053 298.5,454C 302.104,473.125 305.438,492.292 308.5,511.5C 307.5,511.5 306.5,511.5 305.5,511.5C 289.214,502.02 272.547,493.02 255.5,484.5C 238.453,493.02 221.786,502.02 205.5,511.5C 204.5,511.5 203.5,511.5 202.5,511.5C 205.562,492.292 208.896,473.125 212.5,454C 198.719,440.053 184.719,426.219 170.5,412.5C 156.211,425.287 142.378,438.621 129,452.5C 131.577,472.225 134.744,491.892 138.5,511.5C 137.5,511.5 136.5,511.5 135.5,511.5C 118.792,502.394 101.959,493.394 85,484.5C 68.0414,493.394 51.208,502.394 34.5,511.5C 33.5,511.5 32.5,511.5 31.5,511.5C 35.1059,491.866 38.2726,472.199 41,452.5C 27.6015,438.599 13.7682,425.266 -0.5,412.5C -0.5,411.833 -0.5,411.167 -0.5,410.5C 18.8272,407.715 38.1606,404.882 57.5,402C 66.5238,384.12 75.6905,366.286 85,348.5C 94.3095,366.286 103.476,384.12 112.5,402C 131.826,404.88 151.16,407.713 170.5,410.5C 189.84,407.713 209.174,404.88 228.5,402C 237.643,384.213 246.643,366.38 255.5,348.5C 264.357,366.38 273.357,384.213 282.5,402C 302.008,404.779 321.508,407.612 341,410.5C 360.167,407.667 379.333,404.833 398.5,402C 407.524,384.12 416.69,366.286 426,348.5C 435.31,366.286 444.476,384.12 453.5,402C 472.839,404.882 492.173,407.715 511.5,410.5 Z"/></g>
</svg>
