<?xml version="1.0" encoding="UTF-8"?>
<!DOCTYPE svg PUBLIC "-//W3C//DTD SVG 1.1//EN" "http://www.w3.org/Graphics/SVG/1.1/DTD/svg11.dtd">
<svg xmlns="http://www.w3.org/2000/svg" version="1.1" width="512px" height="512px" style="shape-rendering:geometricPrecision; text-rendering:geometricPrecision; image-rendering:optimizeQuality; fill-rule:evenodd; clip-rule:evenodd" xmlns:xlink="http://www.w3.org/1999/xlink">
<g><path style="opacity:0.991" fill="#000000" d="M 63.5,39.5 C 133.5,39.5 203.5,39.5 273.5,39.5C 273.333,62.8357 273.5,86.169 274,109.5C 275.833,118 281,123.167 289.5,125C 312.831,125.5 336.164,125.667 359.5,125.5C 359.667,156.835 359.5,188.168 359,219.5C 338.615,192.722 311.448,178.722 277.5,177.5C 224.683,181.486 191.85,209.152 179,260.5C 173.335,312.855 194.335,349.855 242,371.5C 278.947,384.076 312.78,378.409 343.5,354.5C 350.819,361.319 357.986,368.319 365,375.5C 365.667,376.167 365.667,376.833 365,377.5C 360.161,381.328 356.494,385.995 354,391.5C 353.077,397.33 354.744,402.33 359,406.5C 359.667,420.167 359.667,433.833 359,447.5C 355.833,460 348,467.833 335.5,471C 245.833,471.667 156.167,471.667 66.5,471C 54.2539,467.087 46.4205,458.92 43,446.5C 42.3333,317.833 42.3333,189.167 43,60.5C 46.0427,49.6256 52.876,42.6256 63.5,39.5 Z M 91.5,87.5 C 138.501,87.3333 185.501,87.5 232.5,88C 239.347,89.8656 241.18,94.0323 238,100.5C 236.352,101.717 234.519,102.55 232.5,103C 185.5,103.667 138.5,103.667 91.5,103C 85.9809,101.496 83.8143,97.9962 85,92.5C 86.8049,90.1743 88.9716,88.5077 91.5,87.5 Z M 91.5,151.5 C 138.501,151.333 185.501,151.5 232.5,152C 239.347,153.866 241.18,158.032 238,164.5C 236.352,165.717 234.519,166.55 232.5,167C 185.5,167.667 138.5,167.667 91.5,167C 85.9809,165.496 83.8143,161.996 85,156.5C 86.8049,154.174 88.9716,152.508 91.5,151.5 Z M 91.5,215.5 C 111.503,215.333 131.503,215.5 151.5,216C 157.019,217.504 159.186,221.004 158,226.5C 156.363,228.81 154.196,230.31 151.5,231C 131.5,231.667 111.5,231.667 91.5,231C 85.9809,229.496 83.8143,225.996 85,220.5C 86.8049,218.174 88.9716,216.508 91.5,215.5 Z M 91.5,279.5 C 111.503,279.333 131.503,279.5 151.5,280C 157.019,281.504 159.186,285.004 158,290.5C 156.363,292.81 154.196,294.31 151.5,295C 131.5,295.667 111.5,295.667 91.5,295C 85.9809,293.496 83.8143,289.996 85,284.5C 86.8049,282.174 88.9716,280.508 91.5,279.5 Z M 91.5,343.5 C 111.503,343.333 131.503,343.5 151.5,344C 157.019,345.504 159.186,349.004 158,354.5C 156.363,356.81 154.196,358.31 151.5,359C 131.5,359.667 111.5,359.667 91.5,359C 85.9809,357.496 83.8143,353.996 85,348.5C 86.8049,346.174 88.9716,344.508 91.5,343.5 Z M 91.5,407.5 C 164.501,407.333 237.501,407.5 310.5,408C 318.651,410.926 319.984,415.593 314.5,422C 313.167,422.333 311.833,422.667 310.5,423C 237.5,423.667 164.5,423.667 91.5,423C 85.9809,421.496 83.8143,417.996 85,412.5C 86.8049,410.174 88.9716,408.508 91.5,407.5 Z"/></g>
<g><path style="opacity:0.928" fill="#000000" d="M 289.5,50.5 C 310.095,69.4276 330.095,89.0942 349.5,109.5C 329.798,110.821 310.132,110.821 290.5,109.5C 289.5,89.8446 289.167,70.178 289.5,50.5 Z"/></g>
<g><path style="opacity:0.945" fill="#000000" d="M 269.5,192.5 C 310.328,191.155 339.495,208.821 357,245.5C 370.078,283.687 361.912,316.52 332.5,344C 308.073,362.351 281.073,367.351 251.5,359C 214.148,344.969 194.481,317.969 192.5,278C 196.268,229.553 221.935,201.053 269.5,192.5 Z M 271.5,213.5 C 306.066,212.917 328.899,228.917 340,261.5C 346.011,291.966 336.178,315.8 310.5,333C 283.465,346.271 258.132,343.604 234.5,325C 209.133,297.564 206.966,268.397 228,237.5C 239.628,224.106 254.128,216.106 271.5,213.5 Z"/></g>
<g><path style="opacity:0.976" fill="#000000" d="M 270.5,229.5 C 298.74,228.187 317.24,240.853 326,267.5C 329.9,293.201 320.4,312.034 297.5,324C 273.021,332.675 252.854,326.842 237,306.5C 224.046,283.787 226.212,262.62 243.5,243C 251.235,235.799 260.235,231.299 270.5,229.5 Z"/></g>
<g><path style="opacity:0.764" fill="#000000" d="M 358.5,336.5 C 359.645,340.311 359.812,344.311 359,348.5C 357.315,346.983 355.815,345.316 354.5,343.5C 355.889,341.132 357.222,338.799 358.5,336.5 Z"/></g>
<g><path style="opacity:0.931" fill="#000000" d="M 392.5,369.5 C 399.757,375.087 406.424,381.421 412.5,388.5C 404.514,396.986 396.348,405.319 388,413.5C 381.5,407 375,400.5 368.5,394C 376.702,385.965 384.702,377.798 392.5,369.5 Z"/></g>
<g><path style="opacity:0.953" fill="#000000" d="M 423.5,399.5 C 438.827,413.994 453.661,428.994 468,444.5C 468.965,448.782 468.298,452.782 466,456.5C 461.756,461.415 456.923,465.581 451.5,469C 447.548,469.912 443.881,469.245 440.5,467C 427,453.5 413.5,440 400,426.5C 399.333,425.5 399.333,424.5 400,423.5C 408.036,415.632 415.869,407.632 423.5,399.5 Z"/></g>
</svg>
