<?xml version="1.0" encoding="UTF-8"?>
<!DOCTYPE svg PUBLIC "-//W3C//DTD SVG 1.1//EN" "http://www.w3.org/Graphics/SVG/1.1/DTD/svg11.dtd">
<svg xmlns="http://www.w3.org/2000/svg" version="1.1" width="512px" height="512px" style="shape-rendering:geometricPrecision; text-rendering:geometricPrecision; image-rendering:optimizeQuality; fill-rule:evenodd; clip-rule:evenodd" xmlns:xlink="http://www.w3.org/1999/xlink">
<g><path style="opacity:0.985" fill="#000000" d="M 166.5,41.5 C 205.918,39.8026 233.252,56.9692 248.5,93C 258.879,130.533 248.545,160.867 217.5,184C 195.227,196.569 171.893,198.902 147.5,191C 111.886,174.621 95.7194,146.788 99,107.5C 106.58,70.0852 129.08,48.0852 166.5,41.5 Z"/></g>
<g><path style="opacity:0.989" fill="#000000" d="M 97.5,212.5 C 104.947,214.432 111.614,217.932 117.5,223C 163.913,246.637 208.579,243.637 251.5,214C 261.457,212.392 269.957,215.225 277,222.5C 277.507,223.996 277.007,225.163 275.5,226C 226.82,260.871 204.654,308.371 209,368.5C 212.41,398.088 223.577,424.255 242.5,447C 184.833,447.667 127.167,447.667 69.5,447C 49.2453,441.745 36.7453,428.912 32,408.5C 29.7803,364.462 32.7803,320.795 41,277.5C 49.4031,252.496 64.2364,232.329 85.5,217C 89.3011,214.584 93.3011,213.084 97.5,212.5 Z"/></g>
<g><path style="opacity:0.979" fill="#000000" d="M 343.5,231.5 C 394.12,227.232 433.62,245.899 462,287.5C 478.778,315.836 483.778,346.17 477,378.5C 463.432,428.068 431.598,458.568 381.5,470C 328.719,477.015 287.219,458.848 257,415.5C 237.084,380.268 234.084,343.601 248,305.5C 266.784,263.872 298.617,239.205 343.5,231.5 Z M 355.5,278.5 C 366.922,277.269 373.255,282.269 374.5,293.5C 384.591,295.296 393.425,299.629 401,306.5C 406.614,322.884 400.781,330.717 383.5,330C 372.691,322.477 361.024,320.477 348.5,324C 345.292,327.959 345.959,330.959 350.5,333C 359.833,335.667 369.167,338.333 378.5,341C 404.226,352.844 410.393,371.344 397,396.5C 391.368,403.402 384.202,407.902 375.5,410C 371.721,423.375 363.388,427.375 350.5,422C 346.476,418.787 344.476,414.62 344.5,409.5C 334.403,407.701 325.569,403.368 318,396.5C 312.362,380.137 318.196,372.303 335.5,373C 346.318,380.496 357.985,382.496 370.5,379C 373.07,376.282 373.07,373.615 370.5,371C 359.454,367.822 348.454,364.488 337.5,361C 317.153,351.459 310.653,335.959 318,314.5C 323.378,303.715 331.878,296.548 343.5,293C 344.841,285.837 348.841,281.004 355.5,278.5 Z"/></g>
</svg>
