<?xml version="1.0" encoding="UTF-8"?>
<!DOCTYPE svg PUBLIC "-//W3C//DTD SVG 1.1//EN" "http://www.w3.org/Graphics/SVG/1.1/DTD/svg11.dtd">
<svg xmlns="http://www.w3.org/2000/svg" version="1.1" width="512px" height="512px" style="shape-rendering:geometricPrecision; text-rendering:geometricPrecision; image-rendering:optimizeQuality; fill-rule:evenodd; clip-rule:evenodd" xmlns:xlink="http://www.w3.org/1999/xlink">
<g><path style="opacity:0.974" fill="#000000" d="M 15.5,93.5 C 37.1667,93.5 58.8333,93.5 80.5,93.5C 80.5,115.5 80.5,137.5 80.5,159.5C 58.8333,159.5 37.1667,159.5 15.5,159.5C 15.5,137.5 15.5,115.5 15.5,93.5 Z"/></g>
<g><path style="opacity:0.977" fill="#000000" d="M 136.5,93.5 C 256.167,93.5 375.833,93.5 495.5,93.5C 495.5,115.5 495.5,137.5 495.5,159.5C 375.833,159.667 256.166,159.5 136.5,159C 135.172,137.167 135.172,115.333 136.5,93.5 Z"/></g>
<g><path style="opacity:0.974" fill="#000000" d="M 15.5,222.5 C 37.1667,222.5 58.8333,222.5 80.5,222.5C 80.5,244.5 80.5,266.5 80.5,288.5C 58.8333,288.5 37.1667,288.5 15.5,288.5C 15.5,266.5 15.5,244.5 15.5,222.5 Z"/></g>
<g><path style="opacity:0.977" fill="#000000" d="M 136.5,222.5 C 256.167,222.5 375.833,222.5 495.5,222.5C 495.5,244.5 495.5,266.5 495.5,288.5C 375.833,288.667 256.166,288.5 136.5,288C 135.172,266.167 135.172,244.333 136.5,222.5 Z"/></g>
<g><path style="opacity:0.974" fill="#000000" d="M 15.5,351.5 C 37.1667,351.5 58.8333,351.5 80.5,351.5C 80.5,373.5 80.5,395.5 80.5,417.5C 58.8333,417.5 37.1667,417.5 15.5,417.5C 15.5,395.5 15.5,373.5 15.5,351.5 Z"/></g>
<g><path style="opacity:0.977" fill="#000000" d="M 136.5,351.5 C 256.167,351.5 375.833,351.5 495.5,351.5C 495.5,373.5 495.5,395.5 495.5,417.5C 375.833,417.667 256.166,417.5 136.5,417C 135.172,395.167 135.172,373.333 136.5,351.5 Z"/></g>
</svg>
