<?xml version="1.0" encoding="UTF-8"?>
<!DOCTYPE svg PUBLIC "-//W3C//DTD SVG 1.1//EN" "http://www.w3.org/Graphics/SVG/1.1/DTD/svg11.dtd">
<svg xmlns="http://www.w3.org/2000/svg" version="1.1" width="512px" height="512px" style="shape-rendering:geometricPrecision; text-rendering:geometricPrecision; image-rendering:optimizeQuality; fill-rule:evenodd; clip-rule:evenodd" xmlns:xlink="http://www.w3.org/1999/xlink">
<g><path style="opacity:0.977" fill="#000000" d="M 511.5,45.5 C 511.5,70.5 511.5,95.5 511.5,120.5C 340.833,120.5 170.167,120.5 -0.5,120.5C -0.5,95.5 -0.5,70.5 -0.5,45.5C 3.62546,31.2091 12.9588,22.0424 27.5,18C 179.5,17.3333 331.5,17.3333 483.5,18C 498.015,22.0159 507.348,31.1825 511.5,45.5 Z M 61.5,46.5 C 77.289,44.9715 87.789,51.6381 93,66.5C 95.3935,83.2226 88.5601,94.056 72.5,99C 54.1046,99.9444 43.4379,91.2777 40.5,73C 42.1729,59.7665 49.1729,50.9332 61.5,46.5 Z M 136.5,46.5 C 160.108,46.6011 170.274,58.2678 167,81.5C 161.131,94.6881 150.964,100.521 136.5,99C 117.331,91.8463 111.498,78.6796 119,59.5C 123.38,53.0747 129.213,48.7414 136.5,46.5 Z M 210.5,46.5 C 229.377,45.5454 240.377,54.3788 243.5,73C 240.562,91.2777 229.895,99.9444 211.5,99C 198.397,95.2292 191.064,86.5626 189.5,73C 191.117,59.885 198.117,51.0517 210.5,46.5 Z M 270.5,65.5 C 335.501,65.3333 400.501,65.5 465.5,66C 472.167,70.6667 472.167,75.3333 465.5,80C 400.833,80.6667 336.167,80.6667 271.5,80C 265.205,75.6625 264.872,70.8292 270.5,65.5 Z"/></g>
<g><path style="opacity:0.892" fill="#000000" d="M 65.5,61.5 C 77.339,63.1758 80.839,69.5091 76,80.5C 71.9752,83.393 67.4752,84.2263 62.5,83C 60,81.8333 58.1667,80 57,77.5C 54.8955,69.3687 57.7289,64.0353 65.5,61.5 Z"/></g>
<g><path style="opacity:0.908" fill="#000000" d="M 140.5,61.5 C 151.547,63.2727 155.047,69.2727 151,79.5C 144.38,85.0617 138.047,84.7284 132,78.5C 129.073,69.7858 131.906,64.1191 140.5,61.5 Z"/></g>
<g><path style="opacity:0.896" fill="#000000" d="M 215.5,61.5 C 226.926,63.5856 230.093,69.919 225,80.5C 224.097,81.7014 222.931,82.5348 221.5,83C 210.056,85.5513 204.89,81.0513 206,69.5C 207.593,64.8085 210.76,62.1418 215.5,61.5 Z"/></g>
<g><path style="opacity:0.985" fill="#000000" d="M -0.5,136.5 C 170.167,136.5 340.833,136.5 511.5,136.5C 511.5,246.167 511.5,355.833 511.5,465.5C 507.348,479.817 498.015,488.984 483.5,493C 331.5,493.667 179.5,493.667 27.5,493C 12.9588,488.958 3.62546,479.791 -0.5,465.5C -0.5,355.833 -0.5,246.167 -0.5,136.5 Z M 372.5,163.5 C 389.922,163.425 400.256,171.925 403.5,189C 415.094,191.94 426.594,195.106 438,198.5C 452.054,182.466 466.72,181.8 482,196.5C 490.581,211.844 487.748,224.677 473.5,235C 456.492,241.744 443.992,236.911 436,220.5C 435.433,217.832 434.933,215.166 434.5,212.5C 422.725,209.973 411.058,206.973 399.5,203.5C 392.329,213.413 382.662,217.246 370.5,215C 365.452,213.395 360.952,210.895 357,207.5C 344.44,213.197 331.94,219.03 319.5,225C 318.008,247.171 306.341,256.838 284.5,254C 267.079,245.313 262.579,232.146 271,214.5C 283.944,200.255 297.778,199.255 312.5,211.5C 325.076,205.628 337.576,199.628 350,193.5C 350.537,178.028 358.037,168.028 372.5,163.5 Z M 138.5,223.5 C 179.158,224.402 208.325,243.069 226,279.5C 231.294,291.635 233.627,304.302 233,317.5C 232.215,319.286 231.049,320.786 229.5,322C 199.586,323.651 169.586,323.984 139.5,323C 137.714,322.215 136.214,321.049 135,319.5C 133.349,289.586 133.016,259.586 134,229.5C 134.979,227.032 136.479,225.032 138.5,223.5 Z M 358.5,237.5 C 370.505,237.333 382.505,237.5 394.5,238C 399.333,238.833 402.167,241.667 403,246.5C 403.667,304.167 403.667,361.833 403,419.5C 401.718,424.449 398.551,427.283 393.5,428C 382.167,428.667 370.833,428.667 359.5,428C 355.104,427.27 352.27,424.77 351,420.5C 350.333,362.167 350.333,303.833 351,245.5C 352.327,241.675 354.827,239.008 358.5,237.5 Z M 103.5,244.5 C 108.511,244.334 113.511,244.501 118.5,245C 120.667,245.833 122.167,247.333 123,249.5C 123.333,277.5 123.667,305.5 124,333.5C 143,352.5 162,371.5 181,390.5C 182.457,393.366 182.79,396.366 182,399.5C 154.538,426.262 122.371,434.096 85.5,423C 46.8517,407.168 26.1851,378.334 23.5,336.5C 25.8634,295.228 45.8634,266.395 83.5,250C 90.1419,247.581 96.8086,245.748 103.5,244.5 Z M 440.5,260.5 C 453.837,260.333 467.171,260.5 480.5,261C 483.756,262.587 485.923,265.087 487,268.5C 487.667,318.833 487.667,369.167 487,419.5C 485.833,424 483,426.833 478.5,428C 466.833,428.667 455.167,428.667 443.5,428C 439.104,427.27 436.27,424.77 435,420.5C 434.333,369.5 434.333,318.5 435,267.5C 436.371,264.734 438.204,262.401 440.5,260.5 Z M 272.5,277.5 C 285.837,277.333 299.171,277.5 312.5,278C 315.728,279.563 317.895,282.063 319,285.5C 319.667,330.167 319.667,374.833 319,419.5C 317.833,424 315,426.833 310.5,428C 298.833,428.667 287.167,428.667 275.5,428C 271.078,427.242 268.245,424.742 267,420.5C 266.333,375.167 266.333,329.833 267,284.5C 267.967,281.379 269.8,279.046 272.5,277.5 Z M 149.5,333.5 C 180.254,333.015 210.921,333.515 241.5,335C 243.961,337.827 244.961,341.16 244.5,345C 243.419,365.919 236.252,384.419 223,400.5C 220.463,403.372 217.63,405.872 214.5,408C 212.029,408.706 209.695,408.373 207.5,407C 187.333,386.833 167.167,366.667 147,346.5C 143.918,341.541 144.751,337.208 149.5,333.5 Z"/></g>
<g><path style="opacity:0.895" fill="#000000" d="M 372.5,179.5 C 383.471,177.972 388.304,182.638 387,193.5C 382.672,200.696 376.838,202.196 369.5,198C 364.795,190.814 365.795,184.647 372.5,179.5 Z"/></g>
<g><path style="opacity:0.892" fill="#000000" d="M 457.5,201.5 C 470.114,201.941 473.947,207.941 469,219.5C 465.319,222.36 461.152,223.193 456.5,222C 450.891,218.723 449.058,213.89 451,207.5C 452.494,204.686 454.66,202.686 457.5,201.5 Z"/></g>
<g><path style="opacity:0.892" fill="#000000" d="M 289.5,218.5 C 302.114,218.941 305.947,224.941 301,236.5C 297.319,239.36 293.152,240.193 288.5,239C 282.891,235.723 281.058,230.89 283,224.5C 284.494,221.686 286.66,219.686 289.5,218.5 Z"/></g>
<g><path style="opacity:0.972" fill="#000000" d="M 149.5,239.5 C 188.487,245.82 211.154,268.487 217.5,307.5C 194.833,307.5 172.167,307.5 149.5,307.5C 149.5,284.833 149.5,262.167 149.5,239.5 Z"/></g>
<g><path style="opacity:0.943" fill="#000000" d="M 365.5,253.5 C 372.833,253.5 380.167,253.5 387.5,253.5C 387.5,306.5 387.5,359.5 387.5,412.5C 380.167,412.5 372.833,412.5 365.5,412.5C 365.5,359.5 365.5,306.5 365.5,253.5 Z"/></g>
<g><path style="opacity:0.98" fill="#000000" d="M 100.5,260.5 C 102.833,260.5 105.167,260.5 107.5,260.5C 107.027,286.898 107.527,313.231 109,339.5C 126.985,358.319 145.152,376.986 163.5,395.5C 140.107,413.396 114.44,417.23 86.5,407C 60.5699,395.301 45.0699,375.468 40,347.5C 36.7216,314.23 48.8883,288.396 76.5,270C 84.2722,265.936 92.2722,262.769 100.5,260.5 Z"/></g>
<g><path style="opacity:0.94" fill="#000000" d="M 449.5,275.5 C 456.833,275.5 464.167,275.5 471.5,275.5C 471.5,321.167 471.5,366.833 471.5,412.5C 464.167,412.5 456.833,412.5 449.5,412.5C 449.5,366.833 449.5,321.167 449.5,275.5 Z"/></g>
<g><path style="opacity:0.938" fill="#000000" d="M 281.5,292.5 C 288.833,292.5 296.167,292.5 303.5,292.5C 303.5,332.5 303.5,372.5 303.5,412.5C 296.167,412.5 288.833,412.5 281.5,412.5C 281.5,372.5 281.5,332.5 281.5,292.5 Z"/></g>
<g><path style="opacity:0.917" fill="#000000" d="M 172.5,348.5 C 191.167,348.5 209.833,348.5 228.5,348.5C 227.426,363.977 221.926,377.643 212,389.5C 198.245,376.248 185.078,362.581 172.5,348.5 Z"/></g>
</svg>
